<svg width="34" height="33" viewBox="0 0 34 33" fill="none" xmlns="http://www.w3.org/2000/svg">
<g id="Group 4547">
<path id="Vector" d="M16.9381 1.27931C13.2839 1.27568 9.74785 2.57354 6.96364 4.94028C4.17942 7.30702 2.32907 10.5879 1.74418 14.195C1.15929 17.8022 1.8781 21.4997 3.77179 24.6249C5.66549 27.7502 8.61027 30.0989 12.0784 31.2502C12.8453 31.3851 13.0902 30.9334 13.0902 30.5272C13.0902 30.1606 13.0976 29.1414 13.0902 27.8524C8.80973 28.7807 7.92547 25.8273 7.92547 25.8273C7.64361 24.898 7.03871 24.1001 6.22002 23.5778C4.82398 22.6246 6.32414 22.6422 6.32414 22.6422C6.81168 22.7091 7.27747 22.8866 7.68591 23.1611C8.09435 23.4355 8.43461 23.7998 8.68068 24.226C8.88893 24.6051 9.17025 24.9391 9.50838 25.2088C9.8465 25.4785 10.2347 25.6785 10.6506 25.7973C11.0665 25.9161 11.5018 25.9512 11.9314 25.9008C12.361 25.8503 12.7763 25.7152 13.1533 25.5032C13.2266 24.726 13.5712 24.0001 14.1299 23.4546C10.7161 23.0646 7.12627 21.7462 7.12627 15.8527C7.10399 14.3243 7.67115 12.846 8.71001 11.7247C8.23996 10.399 8.29399 8.94392 8.86106 7.6568C8.86106 7.6568 10.1544 7.24327 13.0888 9.23468C15.6094 8.54303 18.2698 8.54303 20.7904 9.23468C23.7336 7.24473 25.0152 7.6568 25.0152 7.6568C25.5827 8.94432 25.637 10.399 25.1677 11.7247C26.2071 12.8462 26.7738 14.3253 26.75 15.8541C26.75 21.7638 23.1543 23.0631 19.7273 23.4414C20.0953 23.8111 20.3797 24.2555 20.5614 24.7445C20.743 25.2335 20.8176 25.7557 20.7802 26.276V30.5345C20.7802 30.9451 21.0295 31.3997 21.8096 31.2502C25.2769 30.0969 28.2202 27.7468 30.1123 24.6208C32.0043 21.4948 32.7215 17.7972 32.1353 14.1905C31.549 10.5838 29.6977 7.3037 26.913 4.93786C24.1283 2.57202 20.5922 1.27505 16.9381 1.27931Z" fill="#EFA35D" stroke="black" stroke-width="1.46643" stroke-linecap="round" stroke-linejoin="round"/>
</g>
</svg>
