<svg width="33" height="32" viewBox="0 0 33 32" fill="none" xmlns="http://www.w3.org/2000/svg">
<g id="Instagram--Streamline-Core.svg">
<path id="Rectangle 2" d="M1.5459 7.70786C1.5459 4.15748 4.42406 1.2793 7.97447 1.2793H25.1174C28.6677 1.2793 31.5459 4.15748 31.5459 7.70786V24.8508C31.5459 28.4011 28.6677 31.2793 25.1174 31.2793H7.97447C4.42406 31.2793 1.5459 28.4011 1.5459 24.8508V7.70786Z" fill="#EFA35D" stroke="black" stroke-width="1.45743" stroke-linecap="round" stroke-linejoin="round"/>
<path id="Ellipse 11" d="M10.1748 16.2773C10.1748 17.114 10.3396 17.9424 10.6598 18.7154C10.9799 19.4884 11.4492 20.1907 12.0408 20.7823C12.6325 21.374 13.3348 21.8432 14.1078 22.1634C14.8807 22.4836 15.7092 22.6484 16.5459 22.6484C17.3825 22.6484 18.211 22.4836 18.984 22.1634C19.757 21.8432 20.4593 21.374 21.0509 20.7823C21.6425 20.1907 22.1118 19.4884 22.432 18.7154C22.7522 17.9424 22.9169 17.114 22.9169 16.2773C22.9169 14.5876 22.2457 12.9671 21.0509 11.7723C19.8561 10.5775 18.2356 9.90625 16.5459 9.90625C14.8562 9.90625 13.2357 10.5775 12.0408 11.7723C10.846 12.9671 10.1748 14.5876 10.1748 16.2773Z" fill="white" stroke="black" stroke-width="1.45743" stroke-linecap="round" stroke-linejoin="round"/>
<g id="Group 4546">
<path id="Vector" d="M25.2193 8.23946C24.8743 8.23946 24.5947 7.95981 24.5947 7.61485C24.5947 7.26989 24.8743 6.99023 25.2193 6.99023" stroke="black" stroke-width="1.45743" stroke-linecap="round" stroke-linejoin="round"/>
<path id="Vector_2" d="M25.2197 8.23946C25.5648 8.23946 25.8443 7.95981 25.8443 7.61485C25.8443 7.26989 25.5648 6.99023 25.2197 6.99023" stroke="black" stroke-width="1.45743" stroke-linecap="round" stroke-linejoin="round"/>
</g>
</g>
</svg>
