<svg width="30" height="32" viewBox="0 0 30 32" fill="none" xmlns="http://www.w3.org/2000/svg">
<g id="Linkedin--Streamline-Core.svg">
<path id="Vector" d="M7.50772 4.20309C7.51393 5.00105 7.20594 5.76939 6.6503 6.34214C6.09467 6.91486 5.336 7.24599 4.53823 7.26397C3.74212 7.23475 2.98767 6.90083 2.43075 6.33116C1.87386 5.7615 1.55708 4.99969 1.5459 4.20309C1.58051 3.42702 1.90891 2.6931 2.46458 2.15018C3.02023 1.60725 3.76155 1.29592 4.53823 1.2793C5.31267 1.29623 6.05136 1.60833 6.60331 2.1518C7.15526 2.69527 7.4788 3.42905 7.50772 4.20309ZM1.86569 12.7004C1.86569 10.9416 2.98497 11.2157 4.53823 11.2157C6.09151 11.2157 7.18794 10.9416 7.18794 12.7004V29.8321C7.18794 31.6139 6.06867 31.2484 4.53823 31.2484C3.00781 31.2484 1.86569 31.6139 1.86569 29.8321V12.7004Z" fill="#EFA35D" stroke="black" stroke-width="1.34615" stroke-linecap="round" stroke-linejoin="round"/>
<path id="Vector_2" d="M11.8027 12.6998C11.8027 11.7176 12.1682 11.3521 12.7393 11.2379C13.3103 11.1237 15.2747 11.2379 15.96 11.2379C16.6453 11.2379 16.9194 12.3571 16.8965 13.2023C17.4827 12.4156 18.261 11.7925 19.1568 11.3926C20.0527 10.9926 21.0362 10.8292 22.0132 10.9181C22.9726 10.8594 23.9338 11.0033 24.834 11.3403C25.734 11.6773 26.5535 12.1999 27.2384 12.8742C27.9235 13.5485 28.4589 14.3593 28.8102 15.2541C29.1614 16.1488 29.3204 17.1075 29.277 18.0677V29.7629C29.277 31.5447 28.1806 31.1792 26.6273 31.1792C25.074 31.1792 23.9776 31.5447 23.9776 29.7629V20.6261C24.0178 20.1558 23.9564 19.6824 23.7974 19.2381C23.6384 18.7937 23.3855 18.3887 23.0562 18.0507C22.7269 17.7127 22.3286 17.4495 21.8885 17.279C21.4484 17.1085 20.9768 17.0347 20.5056 17.0627C20.0367 17.0508 19.5706 17.1386 19.1381 17.3204C18.7057 17.5021 18.3167 17.7737 17.9971 18.117C17.6775 18.4604 17.4345 18.8678 17.2841 19.3121C17.1338 19.7565 17.0795 20.2277 17.125 20.6946V29.8315C17.125 31.6132 16.0057 31.2477 14.4524 31.2477C12.8992 31.2477 11.8027 31.6132 11.8027 29.8315V12.6998Z" fill="#EFA35D" stroke="black" stroke-width="1.34615" stroke-linecap="round" stroke-linejoin="round"/>
</g>
</svg>
