<svg width="32" height="32" viewBox="0 0 32 32" fill="none" xmlns="http://www.w3.org/2000/svg">
<g id="Sign-At--Streamline-Core.svg">
<path id="Vector" d="M22.9926 16.2795C22.9926 17.6438 22.5892 18.9777 21.8335 20.1135C21.0777 21.2494 20.0032 22.1366 18.7449 22.6638C17.4866 23.1911 16.1005 23.3348 14.7608 23.0768C13.4211 22.8189 12.1875 22.1709 11.2148 21.2142C10.2422 20.2575 9.57389 19.0348 9.29388 17.6995C9.01386 16.3642 9.1346 14.976 9.64095 13.7091C10.1473 12.4423 11.0167 11.3533 12.1399 10.5788C13.2631 9.80445 14.5901 9.37916 15.9542 9.35643C16.873 9.34111 17.7857 9.50888 18.639 9.84993C19.4923 10.191 20.2692 10.6985 20.9243 11.3429C21.5795 11.9873 22.0998 12.7557 22.4549 13.6032C22.81 14.4508 22.9928 15.3606 22.9926 16.2795Z" fill="#EFA35D" stroke="black" stroke-width="1.34616" stroke-linecap="round" stroke-linejoin="round"/>
<path id="Vector_2" d="M22.9921 16.2793V19.2794C22.9921 27.3332 35.6152 19.7409 28.9921 8.8024C27.6585 6.52481 25.7551 4.63351 23.4691 3.31446C21.183 1.99542 18.593 1.29404 15.9537 1.2793C13.7364 1.28614 11.5482 1.78448 9.54657 2.73846C7.54494 3.69241 5.77971 5.07828 4.37792 6.79627C2.97613 8.51426 1.97264 10.5217 1.43971 12.674C0.906773 14.8263 0.857635 17.0701 1.29583 19.2436C1.73403 21.4172 2.64867 23.4667 3.97389 25.2443C5.29913 27.0221 7.00201 28.4838 8.95995 29.5246C10.9179 30.5652 13.0822 31.1589 15.2971 31.2628C17.512 31.3669 19.7223 30.9782 21.7691 30.1255" stroke="black" stroke-width="1.34616" stroke-linecap="round" stroke-linejoin="round"/>
</g>
</svg>
