<svg width="32" height="32" viewBox="0 0 32 32" fill="none" xmlns="http://www.w3.org/2000/svg">
<g id="Phone--Streamline-Core.svg">
<path id="Vector" d="M11.9733 30.1043C10.553 31.0205 8.86045 31.4199 7.1803 31.2352C5.50017 31.0503 3.93488 30.2927 2.74769 29.0895L1.70979 28.0746C1.25477 27.6091 1 26.9842 1 26.3333C1 25.6825 1.25477 25.0573 1.70979 24.592L6.11505 20.2328C6.57658 19.7793 7.19777 19.5251 7.84487 19.5251C8.49195 19.5251 9.11316 19.7793 9.57467 20.2328C10.0401 20.6879 10.6651 20.9426 11.316 20.9426C11.9669 20.9426 12.5919 20.6879 13.0574 20.2328L19.9766 13.3136C20.2074 13.0861 20.3907 12.815 20.5158 12.5161C20.641 12.2172 20.7054 11.8963 20.7054 11.5723C20.7054 11.2482 20.641 10.9274 20.5158 10.6284C20.3907 10.3295 20.2074 10.0584 19.9766 9.8309C19.5231 9.36939 19.2689 8.74818 19.2689 8.1011C19.2689 7.454 19.5231 6.83281 19.9766 6.37128L24.3588 1.98909C24.8242 1.53407 25.4492 1.2793 26.1 1.2793C26.7511 1.2793 27.3761 1.53407 27.8416 1.98909L28.8564 3.02699C30.0594 4.21418 30.8171 5.77946 31.002 7.45959C31.1869 9.13975 30.7875 10.8323 29.8711 12.2526C25.0967 19.2889 19.0219 25.348 11.9733 30.1043Z" fill="#EFA35D" stroke="black" stroke-width="1.34822" stroke-linecap="round" stroke-linejoin="round"/>
</g>
</svg>
