<svg width="148" height="124" viewBox="0 0 148 124" fill="none" xmlns="http://www.w3.org/2000/svg">
<path d="M14.2137 2.89644C15.3522 5.84671 15.4779 7.20314 14.8662 9.12098C12.0175 11.9697 9.51649 16.903 7.28188 24.1856C3.02072 28.9144 -0.0985878 39.7703 9.39679 40.2641C14.0663 35.7513 25.753 29.2873 26.261 30.4861C27.8105 30.9425 28.6977 31.6065 30.534 36.1835C30.534 36.1835 37.3804 47.5782 37.3804 59.5141C38.216 68.7462 48.4808 71.7041 51.6855 79.2151C54.5959 89.9095 58.5342 103.374 59.0209 114.522C53.86 120.668 64.2625 126.211 66.05 116.841C68.799 108.148 64.3211 99.3767 64.4398 90.5861C65.0542 85.1926 61.8695 74.6408 64.4398 72.0324C77.727 74.3952 82.9818 75.5569 97.4781 70.3677C101.226 69.0357 102.959 67.9805 106.024 66.0947C103.601 66.4191 112.097 81.1797 118.738 88.1868C120.77 96.6498 117.548 105.122 114.97 113.065C112.212 119.218 119.865 124.194 122.647 117.096C126.018 106.855 129.083 96.2652 129.565 85.4046C127.777 79.4105 122.014 77.7416 125.173 71.2086C130.391 66.6958 133.487 54.9901 132.274 47.8257C131.359 40.8132 129.04 32.4618 120.639 31.7377C106.343 28.0154 92.3185 36.1081 77.9801 33.8391C70.5806 33.4671 61.301 34.5522 56.3704 27.7168C50.749 19.3393 43.143 11.8876 33.3127 8.80627C27.0693 7.17374 21.8942 0.848943 15.0597 2.62937L14.2137 2.89644Z" fill="#EFA35D"/>
<path d="M125.361 33.4739V47.8408L122.916 70.2433L128.238 81.9016C128.238 81.9016 131.662 108.825 145.906 104.552L143.954 101.415L139.142 87.0173C139.142 87.0173 138.803 64.6267 138.82 63.6842C138.837 62.7418 137.365 47.8455 137.365 47.8455L132.29 37.0609L125.361 33.4739Z" fill="#EFA35D"/>
<path d="M27.2696 25.0452C26.6429 33.6055 17.1805 33.2067 17.1805 33.2067L13.4511 37.3278C10.3555 44.0365 2.04688 39.2889 2.04688 34.3937C5.62672 26.2868 9.31577 20.7437 9.31577 20.7437C9.01903 14.1158 17.1781 9.76441 17.1781 9.76441L14.1443 5.55785C13.1083 4.20828 13.9738 2.26287 15.6676 2.10382C18.6421 1.82227 24.2493 1.75746 26.5259 6.79702C26.5259 6.79702 47.5705 9.01164 59.6656 31.5569C60.2306 32.6111 83.1126 37.0358 97.8142 32.6063C107.984 29.544 138.289 27.7114 138.835 57.5323C139.113 72.7396 135.863 93.3783 145.952 103.871M129.063 59.2295C128.012 63.1013 126.164 67.3624 122.917 70.2491C122.917 70.2491 125.518 81.6106 130.447 86.4012L124.013 115.292L121.492 119.866C120.767 121.182 119.383 122 117.879 122C114.907 122 112.903 118.971 114.095 116.248C116.393 110.997 119.223 102.109 119.766 89.4229C119.766 89.4229 103.809 73.7931 105.276 59.7966M30.7593 36.6061L37.0928 49.9784C37.0928 49.9784 34.3557 65.036 44.8959 71.7423L50.6455 75.4385L56.6111 97.3591L58.7872 113.58L57.6385 116.46C56.5831 119.104 58.5313 121.979 61.3798 121.979C63.0714 121.979 64.5822 120.922 65.1638 119.332L66.9359 114.477C67.5059 112.916 67.6447 111.23 67.338 109.597L64.1784 92.768L63.7993 72.153C63.7993 72.153 80.9887 77.2355 97.7936 70.7241M44.3617 83.4195L45.7944 93.9122L41.6638 111.211L40.7921 113.393C39.6479 116.258 41.7578 119.373 44.842 119.373C46.5832 119.373 48.1583 118.337 48.8467 116.738L50.7219 112.391M104.635 114.399L101.188 118.321C100.196 119.449 98.6695 119.949 97.2001 119.625C94.2968 118.984 92.9959 115.594 94.7478 113.192C98.1235 108.56 102.805 100.491 106.074 88.2184C106.074 88.2184 103.926 83.1549 102 76.4296" stroke="black" stroke-width="2.84869" stroke-miterlimit="10" stroke-linecap="round" stroke-linejoin="round"/>
</svg>
