<svg width="1207" height="1721" viewBox="0 0 1207 1721" fill="none" xmlns="http://www.w3.org/2000/svg">
<path d="M898 384.5C887.55 352.991 888 330 914 332C956 349 930.087 376.954 954 405C975.041 429.677 929 437.5 898 384.5Z" fill="#EFA35D"/>
<path d="M698 503C741.5 503 841.708 547 879 496.5C891.44 479.655 854.5 443.973 838 446.5C820 449.257 791.419 460.735 781 462C765.04 482.64 739.936 485.771 698 484.5V503Z" fill="#EFA35D"/>
<path d="M941 657C881.5 607.5 853.289 622.864 807.5 600C797 620.5 883.5 631 917.5 661.5C927.692 661.497 968.5 672 982 674.5C967.338 664.668 951.023 665.339 941 657Z" fill="#EFA35D"/>
<path d="M722.5 657C716.493 622.971 732 600 740.5 560.5C722.5 611 653 625.5 680.5 665.5L722.5 657Z" fill="#EFA35D"/>
<path d="M823 297C860.027 288.568 866.752 280.621 872.5 265C870.199 232.208 855.017 219.629 813 203.5C786.5 247 819.5 277 800 282.5C821.5 276.436 829.139 280.966 823 297Z" fill="#EFA35D"/>
<path d="M1154.5 689C1148.5 662.5 1131.5 647 1077.5 639C1104 640.882 1130.5 630 1152 657C1170.14 679.784 1154.5 689 1154.5 689Z" fill="#EFA35D"/>
<path d="M898 384.5C887.55 352.991 888 330 914 332C956 349 930.087 376.954 954 405C975.041 429.677 929 437.5 898 384.5Z" stroke="#EFA35D" stroke-width="5" stroke-linecap="round" stroke-linejoin="round"/>
<path d="M698 503C741.5 503 841.708 547 879 496.5C891.44 479.655 854.5 443.973 838 446.5C820 449.257 791.419 460.735 781 462C765.04 482.64 739.936 485.771 698 484.5V503Z" stroke="#EFA35D" stroke-width="5" stroke-linecap="round" stroke-linejoin="round"/>
<path d="M941 657C881.5 607.5 853.289 622.864 807.5 600C797 620.5 883.5 631 917.5 661.5C927.692 661.497 968.5 672 982 674.5C967.338 664.668 951.023 665.339 941 657Z" stroke="#EFA35D" stroke-width="5" stroke-linecap="round" stroke-linejoin="round"/>
<path d="M722.5 657C716.493 622.971 732 600 740.5 560.5C722.5 611 653 625.5 680.5 665.5L722.5 657Z" stroke="#EFA35D" stroke-width="5" stroke-linecap="round" stroke-linejoin="round"/>
<path d="M823 297C860.027 288.568 866.752 280.621 872.5 265C870.199 232.208 855.017 219.629 813 203.5C786.5 247 819.5 277 800 282.5C821.5 276.436 829.139 280.966 823 297Z" stroke="#EFA35D" stroke-width="5" stroke-linecap="round" stroke-linejoin="round"/>
<path d="M1154.5 689C1148.5 662.5 1131.5 647 1077.5 639C1104 640.882 1130.5 630 1152 657C1170.14 679.784 1154.5 689 1154.5 689Z" stroke="#EFA35D" stroke-width="5" stroke-linecap="round" stroke-linejoin="round"/>
<path d="M761.339 300.218C771.471 292.086 785.505 285.725 805.054 280.406C809.967 273.357 809.453 265.394 807.777 256.971C789.049 238.008 757.893 234.098 734.553 219.183C732.313 217.751 729.361 219.517 730.033 222.089C738.324 253.805 774.736 271.785 761.339 300.218Z" fill="black"/>
<path d="M904.23 275.435C886.811 255.056 871.712 239.384 857.904 227.824C866.826 235.895 871.852 250.328 874.274 265.493C883 263 897 268.965 904.23 275.435Z" fill="black"/>
<path d="M718.928 424.565C721.24 427.92 723.555 430.991 725.869 433.797C733.652 431.989 736.985 430.072 740.46 424.565C740.46 420 725.869 421 718.928 424.565Z" fill="black"/>
<path d="M718.928 424.565C718.29 415.978 722.474 407.095 733.935 387.638C735.629 344.675 739.006 318.143 761.339 300.218M718.928 424.565C721.24 427.92 723.555 430.991 725.869 433.797M718.928 424.565C725.869 421 740.46 420 740.46 424.565C736.985 430.072 733.652 431.989 725.869 433.797M848.77 446.58C832.971 439.45 808.298 458.822 780.261 460.668M881.393 497C885.712 487.6 883.48 476.903 876.121 467.174M904.23 275.435C933.591 301.71 955.09 328.084 957.08 382.667C1010.26 463.503 982.101 530.599 1026.89 595C1079.74 670.986 1095.4 619.145 1141.08 647.551C1155.57 656.567 1169.78 675.957 1151.52 693H1057.56C1040.6 693 947.945 662.464 916.835 662.464M904.23 275.435C886.811 255.056 871.712 239.384 857.904 227.824M904.23 275.435C897 268.965 883 263 874.274 265.493C871.852 250.328 866.825 235.895 857.904 227.824M805.707 599.971C805.707 628.129 889.823 631.724 916.835 662.464M740.46 560C740.46 587.812 712.616 621.591 723.309 656.783M916.835 662.464C923.885 670.487 927.045 680.359 923.804 693H848.77C836.79 693 782.16 673.769 731.394 668.629C728.089 668.295 725.125 666.364 724.566 663.09C724.227 661.097 723.969 658.954 723.309 656.783M780.261 460.668C766.582 484.329 724.246 484.536 685 481.571V660.967C699.577 660.638 711.522 659.243 723.309 656.783M780.261 460.668C762.978 461.806 744.418 456.286 725.869 433.797M761.339 300.218C771.471 292.086 785.505 285.725 805.054 280.406C809.967 273.357 809.453 265.394 807.777 256.971M761.339 300.218C774.736 271.785 738.324 253.805 730.033 222.089C729.361 219.517 732.313 217.751 734.553 219.183C757.893 234.098 789.049 238.008 807.777 256.971M807.777 256.971C795.167 237.921 803.621 222.13 811.238 205.227C811.821 203.932 813.228 203.205 814.606 203.547C828.383 206.971 842.322 214.779 857.904 227.824" stroke="black" stroke-width="7" stroke-linecap="round" stroke-linejoin="round"/>
<rect x="670" y="213" width="40" height="492" fill="white"/>
<path d="M605.066 5C604.874 4.99743 604.682 5.00607 604.492 5.02549C603.577 5.1178 602.735 5.45675 602.033 5.97482C601.466 6.39376 600.99 6.92982 600.642 7.54732L200.69 687.716C199.781 689.262 199.769 691.176 200.66 692.733C201.55 694.289 203.207 695.25 205 695.25H600V1030.38V1370.5V1710.5C600 1713.26 602.239 1715.5 605 1715.5H652C679.614 1715.5 702 1693.11 702 1665.5V1375.5H1097H1107C1159.47 1375.5 1202 1332.97 1202 1280.5V780.25C1202 727.783 1159.47 685.25 1107 685.25H1097H702V100C702 47.5329 659.467 5 607 5H605.066Z" fill="white" stroke="white" stroke-width="10" stroke-linecap="round" stroke-linejoin="round"/>
<path d="M1107 1370.5C1156.71 1370.5 1197 1330.21 1197 1280.5V780.25C1197 730.544 1156.71 690.25 1107 690.25H1097V1370.5H1107Z" fill="#EFA35D"/>
<path d="M605 10V690.25V1030.38V1370.5V1710.5H652C676.853 1710.5 697 1690.35 697 1665.5V1370.5V690.25V100C697 50.2944 656.706 10 607 10H605Z" fill="#EFA35D"/>
<path d="M605 10V690.25M605 10L5 1030.38M605 10H607C656.706 10 697 50.2944 697 100V690.25M605 690.25H205M605 690.25V1030.38V1370.5V1710.5H652C676.853 1710.5 697 1690.35 697 1665.5V1370.5M605 690.25H697M697 690.25V1370.5M697 690.25H1097M697 1370.5H1097M1097 690.25H1107C1156.71 690.25 1197 730.544 1197 780.25V1280.5C1197 1330.21 1156.71 1370.5 1107 1370.5H1097M1097 690.25V1370.5" stroke="black" stroke-width="10" stroke-linecap="round" stroke-linejoin="round"/>
</svg>
