<svg width="810" height="394" viewBox="0 0 810 394" fill="none" xmlns="http://www.w3.org/2000/svg">
<path d="M205.771 88.4563C203.387 81.2663 203.49 76.0201 209.422 76.4764C219.006 80.3556 213.093 86.7345 218.55 93.1342C223.351 98.7652 212.845 100.55 205.771 88.4563Z" fill="#EFA35D"/>
<path d="M160.134 115.497C170.06 115.497 192.926 125.537 201.436 114.013C204.274 110.169 195.845 102.027 192.08 102.604C187.973 103.233 181.451 105.852 179.073 106.141C175.431 110.851 169.703 111.565 160.134 111.275V115.497Z" fill="#EFA35D"/>
<path d="M215.584 150.638C202.006 139.342 195.569 142.848 185.12 137.631C182.724 142.309 202.463 144.705 210.221 151.664C212.547 151.664 221.859 154.06 224.939 154.631C221.594 152.387 217.871 152.54 215.584 150.638Z" fill="#EFA35D"/>
<path d="M165.725 150.638C164.354 142.872 167.892 137.631 169.832 128.617C165.724 140.141 149.865 143.45 156.141 152.577L165.725 150.638Z" fill="#EFA35D"/>
<path d="M188.657 68.4899C197.107 66.5658 198.641 64.7523 199.953 61.1879C199.428 53.7052 195.963 50.8348 186.375 47.1543C180.329 57.0805 187.859 63.9261 183.409 65.1811C188.315 63.7974 190.058 64.8311 188.657 68.4899Z" fill="#EFA35D"/>
<path d="M264.302 157.94C262.933 151.893 259.053 148.356 246.731 146.53C252.778 146.96 258.825 144.476 263.731 150.638C267.871 155.836 264.302 157.94 264.302 157.94Z" fill="#EFA35D"/>
<path d="M205.771 88.4563C203.387 81.2663 203.49 76.0201 209.422 76.4764C219.006 80.3556 213.093 86.7345 218.55 93.1342C223.351 98.7652 212.845 100.55 205.771 88.4563Z" stroke="#EFA35D" stroke-width="1.14094" stroke-linecap="round" stroke-linejoin="round"/>
<path d="M160.134 115.497C170.06 115.497 192.926 125.537 201.436 114.013C204.274 110.169 195.845 102.027 192.08 102.604C187.973 103.233 181.451 105.852 179.073 106.141C175.431 110.851 169.703 111.565 160.134 111.275V115.497Z" stroke="#EFA35D" stroke-width="1.14094" stroke-linecap="round" stroke-linejoin="round"/>
<path d="M215.584 150.638C202.006 139.342 195.569 142.848 185.12 137.631C182.724 142.309 202.463 144.705 210.221 151.664C212.547 151.664 221.859 154.06 224.939 154.631C221.594 152.387 217.871 152.54 215.584 150.638Z" stroke="#EFA35D" stroke-width="1.14094" stroke-linecap="round" stroke-linejoin="round"/>
<path d="M165.725 150.638C164.354 142.872 167.892 137.631 169.832 128.617C165.724 140.141 149.865 143.45 156.141 152.577L165.725 150.638Z" stroke="#EFA35D" stroke-width="1.14094" stroke-linecap="round" stroke-linejoin="round"/>
<path d="M188.657 68.4899C197.107 66.5658 198.641 64.7523 199.953 61.1879C199.428 53.7052 195.963 50.8348 186.375 47.1543C180.329 57.0805 187.859 63.9261 183.409 65.1811C188.315 63.7974 190.058 64.8311 188.657 68.4899Z" stroke="#EFA35D" stroke-width="1.14094" stroke-linecap="round" stroke-linejoin="round"/>
<path d="M264.302 157.94C262.933 151.893 259.053 148.356 246.731 146.53C252.778 146.96 258.825 144.476 263.731 150.638C267.871 155.836 264.302 157.94 264.302 157.94Z" stroke="#EFA35D" stroke-width="1.14094" stroke-linecap="round" stroke-linejoin="round"/>
<path d="M174.588 69.225C176.9 67.3693 180.102 65.9179 184.563 64.7041C185.684 63.0957 185.567 61.2786 185.184 59.3565C180.911 55.0294 173.801 54.1371 168.475 50.7337C167.964 50.4071 167.291 50.8101 167.444 51.397C169.336 58.6342 177.645 62.7369 174.588 69.225Z" fill="black"/>
<path d="M207.194 63.5698C203.219 58.9196 199.773 55.3434 196.623 52.7056C198.658 54.5472 199.805 57.8406 200.358 61.3011C202.349 60.7323 205.544 62.0934 207.194 63.5698Z" fill="black"/>
<path d="M164.91 97.5995C165.438 98.3651 165.966 99.0657 166.494 99.7061C168.27 99.2934 169.03 98.856 169.823 97.5995C169.823 96.5578 166.494 96.786 164.91 97.5995Z" fill="black"/>
<path d="M164.91 97.5995C164.764 95.6401 165.719 93.613 168.334 89.1731C168.721 79.3696 169.491 73.3152 174.588 69.225M164.91 97.5995C165.438 98.3651 165.966 99.0657 166.494 99.7061M164.91 97.5995C166.494 96.786 169.823 96.5578 169.823 97.5995C169.03 98.856 168.27 99.2934 166.494 99.7061M194.538 102.623C190.933 100.996 185.303 105.416 178.905 105.838M201.982 114.128C202.968 111.983 202.459 109.542 200.78 107.322M207.194 63.5698C213.893 69.5655 218.799 75.5837 219.253 88.0388C231.387 106.485 224.963 121.795 235.184 136.491C247.244 153.83 250.817 142 261.239 148.482C264.547 150.54 267.79 154.964 263.621 158.853H242.182C238.311 158.853 217.169 151.885 210.07 151.885M207.194 63.5698C203.219 58.9196 199.773 55.3434 196.623 52.7056M207.194 63.5698C205.544 62.0934 202.349 60.7323 200.358 61.3011C199.805 57.8406 198.658 54.5472 196.623 52.7056M184.712 137.625C184.712 144.05 203.906 144.871 210.07 151.885M169.823 128.504C169.823 134.85 163.47 142.558 165.91 150.589M210.07 151.885C211.679 153.716 212.4 155.969 211.66 158.853H194.538C191.805 158.853 179.339 154.465 167.754 153.292C167 153.216 166.324 152.775 166.197 152.028C166.119 151.573 166.06 151.084 165.91 150.589M178.905 105.838C175.784 111.237 166.123 111.284 157.168 110.608V151.544C160.494 151.468 163.22 151.15 165.91 150.589M178.905 105.838C174.962 106.097 170.726 104.838 166.494 99.7061M174.588 69.225C176.9 67.3693 180.102 65.9179 184.563 64.7041C185.684 63.0957 185.567 61.2786 185.184 59.3565M174.588 69.225C177.645 62.7369 169.336 58.6342 167.444 51.397C167.291 50.8101 167.964 50.4071 168.475 50.7337C173.801 54.1371 180.911 55.0294 185.184 59.3565M185.184 59.3565C182.307 55.0095 184.236 51.4062 185.974 47.5491C186.107 47.2536 186.428 47.0877 186.743 47.1659C189.886 47.9472 193.067 49.7289 196.623 52.7056" stroke="black" stroke-width="1.59732" stroke-linecap="round" stroke-linejoin="round"/>
<rect x="153.745" y="49.3223" width="9.12752" height="112.268" fill="white"/>
<path d="M138.928 1.85906C138.884 1.85847 138.84 1.86044 138.797 1.86486C138.588 1.88596 138.395 1.9637 138.234 2.08254C138.105 2.17802 137.997 2.30002 137.918 2.44048L46.6541 157.646C46.4466 157.999 46.444 158.436 46.6472 158.791C46.8504 159.147 47.2283 159.366 47.6376 159.366H137.772V235.837V313.45V391.034C137.772 391.664 138.283 392.174 138.913 392.174H149.638C155.939 392.174 161.047 387.066 161.047 380.765V314.591H251.181H253.463C265.435 314.591 275.141 304.885 275.141 292.913V178.762C275.141 166.789 265.435 157.084 253.463 157.084H251.181H161.047V23.5369C161.047 11.5646 151.341 1.85906 139.369 1.85906H138.928Z" fill="white" stroke="white" stroke-width="2.28188" stroke-linecap="round" stroke-linejoin="round"/>
<path d="M253.463 313.45C264.805 313.45 274 304.255 274 292.913V178.762C274 167.42 264.805 158.225 253.463 158.225H251.181V313.45H253.463Z" fill="#EFA35D"/>
<path d="M138.913 3V158.225V235.837V313.45V391.034H149.638C155.309 391.034 159.906 386.436 159.906 380.765V313.45V158.225V23.5369C159.906 12.1947 150.711 3 139.369 3H138.913Z" fill="#EFA35D"/>
<path d="M138.913 3V158.225M138.913 3L2 235.837M138.913 3H139.369C150.711 3 159.906 12.1947 159.906 23.5369V158.225M138.913 158.225H47.6376M138.913 158.225V235.837V313.45V391.034H149.638C155.309 391.034 159.906 386.436 159.906 380.765V313.45M138.913 158.225H159.906M159.906 158.225V313.45M159.906 158.225H251.181M159.906 313.45H251.181M251.181 158.225H253.463C264.805 158.225 274 167.42 274 178.762V292.913C274 304.255 264.805 313.45 253.463 313.45H251.181M251.181 158.225V313.45" stroke="black" stroke-width="2.28188" stroke-linecap="round" stroke-linejoin="round"/>
<path d="M798.867 387.895C800.674 387.895 802.044 387.418 802.977 386.465C803.91 385.492 804.605 383.626 805.062 380.866C805.539 378.086 805.777 374.015 805.777 368.654C805.777 363.709 805.558 359.897 805.122 357.216C804.685 354.536 803.98 352.629 803.007 351.498C802.034 350.366 800.654 349.8 798.867 349.8C797.119 349.8 795.759 350.405 794.786 351.617C793.813 352.808 793.108 354.754 792.671 357.455C792.235 360.135 792.016 363.868 792.016 368.654C792.016 373.916 792.244 377.937 792.701 380.717C793.178 383.477 793.883 385.363 794.816 386.376C795.769 387.389 797.119 387.895 798.867 387.895ZM798.867 390.665C797.298 390.665 795.978 390.466 794.905 390.069C793.833 389.672 792.87 388.997 792.016 388.044C791.182 387.091 790.517 385.77 790.021 384.083C789.544 382.375 789.187 380.28 788.948 377.798C788.71 375.296 788.591 372.248 788.591 368.654C788.591 363.094 788.938 358.755 789.633 355.638C790.328 352.5 791.401 350.276 792.85 348.966C794.319 347.655 796.325 347 798.867 347C801.468 347 803.493 347.635 804.943 348.906C806.392 350.177 807.465 352.381 808.16 355.519C808.855 358.636 809.202 363.014 809.202 368.654C809.202 372.288 809.083 375.365 808.845 377.887C808.606 380.389 808.249 382.484 807.772 384.172C807.296 385.86 806.631 387.18 805.777 388.133C804.923 389.067 803.95 389.722 802.858 390.099C801.786 390.476 800.455 390.665 798.867 390.665Z" fill="black"/>
<path d="M716.023 390.249C715.765 390.249 715.586 390.17 715.487 390.011C715.388 389.832 715.338 389.445 715.338 388.849V348.818C715.338 348.222 715.388 347.845 715.487 347.686C715.586 347.507 715.765 347.418 716.023 347.418H717.989C718.247 347.418 718.426 347.507 718.525 347.686C718.624 347.845 718.674 348.222 718.674 348.818V388.849C718.674 389.445 718.624 389.832 718.525 390.011C718.426 390.17 718.247 390.249 717.989 390.249H716.023Z" fill="black"/>
<path d="M634.757 390.249C634.499 390.249 634.32 390.17 634.221 390.011C634.122 389.832 634.072 389.445 634.072 388.849V348.818C634.072 348.222 634.122 347.845 634.221 347.686C634.32 347.507 634.499 347.418 634.757 347.418H636.723C636.981 347.418 637.16 347.507 637.259 347.686C637.359 347.845 637.408 348.222 637.408 348.818V386.973C637.408 387.151 637.428 387.29 637.468 387.39C637.507 387.489 637.547 387.549 637.587 387.568C637.646 387.568 637.726 387.568 637.825 387.568H645.748C646.006 387.568 646.185 387.618 646.284 387.717C646.403 387.797 646.463 388.035 646.463 388.432V389.326C646.463 389.604 646.423 389.812 646.344 389.951C646.284 390.09 646.215 390.18 646.135 390.219C646.056 390.239 645.927 390.249 645.748 390.249H634.757Z" fill="black"/>
<path d="M553.819 387.895C555.626 387.895 556.996 387.418 557.929 386.465C558.862 385.492 559.557 383.626 560.014 380.866C560.491 378.086 560.729 374.015 560.729 368.654C560.729 363.709 560.511 359.897 560.074 357.216C559.637 354.536 558.932 352.629 557.959 351.498C556.986 350.366 555.606 349.8 553.819 349.8C552.071 349.8 550.711 350.405 549.738 351.617C548.765 352.808 548.06 354.754 547.624 357.455C547.187 360.135 546.968 363.868 546.968 368.654C546.968 373.916 547.197 377.937 547.653 380.717C548.13 383.477 548.835 385.363 549.768 386.376C550.721 387.389 552.071 387.895 553.819 387.895ZM553.819 390.665C552.25 390.665 550.93 390.466 549.857 390.069C548.785 389.672 547.822 388.997 546.968 388.044C546.134 387.091 545.469 385.77 544.973 384.083C544.496 382.375 544.139 380.28 543.9 377.798C543.662 375.296 543.543 372.248 543.543 368.654C543.543 363.094 543.89 358.755 544.585 355.638C545.28 352.5 546.353 350.276 547.802 348.966C549.272 347.655 551.277 347 553.819 347C556.42 347 558.445 347.635 559.895 348.906C561.345 350.177 562.417 352.381 563.112 355.519C563.807 358.636 564.154 363.014 564.154 368.654C564.154 372.288 564.035 375.365 563.797 377.887C563.559 380.389 563.201 382.484 562.725 384.172C562.248 385.86 561.583 387.18 560.729 388.133C559.875 389.067 558.902 389.722 557.81 390.099C556.738 390.476 555.407 390.665 553.819 390.665Z" fill="black"/>
<path d="M461.86 390.249C461.681 390.249 461.552 390.239 461.473 390.219C461.393 390.18 461.324 390.08 461.264 389.921C461.205 389.763 461.175 389.524 461.175 389.207V348.46C461.175 348.043 461.224 347.765 461.324 347.626C461.443 347.487 461.622 347.418 461.86 347.418H475.084C475.343 347.418 475.521 347.468 475.621 347.567C475.72 347.666 475.77 347.924 475.77 348.341V349.175C475.77 349.473 475.73 349.692 475.65 349.831C475.591 349.97 475.521 350.049 475.442 350.069C475.382 350.089 475.263 350.099 475.084 350.099H464.809C464.61 350.099 464.511 350.357 464.511 350.873V366.659C464.511 366.719 464.531 366.798 464.57 366.897C464.63 366.977 464.67 367.017 464.689 367.017H473.625C473.883 367.017 474.062 367.066 474.161 367.166C474.26 367.265 474.31 367.503 474.31 367.88V368.863C474.31 369.28 474.26 369.538 474.161 369.638C474.062 369.737 473.883 369.787 473.625 369.787H464.719C464.699 369.787 464.66 369.866 464.6 370.025C464.541 370.184 464.511 370.293 464.511 370.353V389.207C464.511 389.524 464.481 389.763 464.421 389.921C464.362 390.08 464.292 390.18 464.213 390.219C464.133 390.239 464.004 390.249 463.826 390.249H461.86Z" fill="black"/>
<path d="M384.139 390.249C383.9 390.249 383.722 390.17 383.603 390.011C383.503 389.832 383.454 389.445 383.454 388.849V351.022C383.454 350.526 383.354 350.277 383.156 350.277H377.765C377.586 350.277 377.457 350.267 377.377 350.248C377.298 350.228 377.219 350.148 377.139 350.009C377.08 349.87 377.05 349.652 377.05 349.354V348.52C377.05 348.024 377.099 347.716 377.199 347.597C377.318 347.478 377.507 347.418 377.765 347.418H392.389C392.647 347.418 392.826 347.478 392.925 347.597C393.025 347.716 393.074 348.024 393.074 348.52V349.354C393.074 349.652 393.044 349.87 392.985 350.009C392.925 350.148 392.856 350.228 392.776 350.248C392.697 350.267 392.568 350.277 392.389 350.277H387.087C386.889 350.277 386.79 350.526 386.79 351.022V388.849C386.79 389.445 386.73 389.832 386.611 390.011C386.512 390.17 386.333 390.249 386.075 390.249H384.139Z" fill="black"/>
<path d="M290.214 390.249C289.976 390.249 289.797 390.17 289.678 390.011C289.579 389.852 289.529 389.504 289.529 388.968V348.758C289.529 348.163 289.579 347.795 289.678 347.656C289.778 347.497 289.956 347.418 290.214 347.418H298.048C299.041 347.418 299.885 347.438 300.58 347.478C301.294 347.517 302.069 347.617 302.903 347.775C303.757 347.934 304.472 348.163 305.047 348.46C305.623 348.738 306.199 349.146 306.775 349.682C307.371 350.198 307.837 350.823 308.175 351.558C308.532 352.293 308.82 353.206 309.039 354.298C309.257 355.39 309.366 356.632 309.366 358.021C309.366 360.821 308.929 362.946 308.056 364.396C307.202 365.825 305.941 366.888 304.273 367.583C304.154 367.662 304.094 367.741 304.094 367.821C304.094 367.9 304.144 367.94 304.243 367.94C304.303 367.96 304.392 368 304.511 368.059C305.067 368.317 305.514 368.546 305.852 368.744C306.209 368.923 306.616 369.231 307.073 369.667C307.549 370.084 307.927 370.561 308.205 371.097C308.483 371.633 308.721 372.358 308.919 373.271C309.138 374.165 309.257 375.208 309.277 376.399V388.641C309.277 389.713 309.049 390.249 308.592 390.249H306.566C306.149 390.249 305.941 389.733 305.941 388.7V385.156V375.416C305.941 374.165 305.742 373.113 305.345 372.259C304.968 371.385 304.452 370.75 303.796 370.353C303.161 369.955 302.535 369.677 301.92 369.519C301.324 369.36 300.689 369.28 300.014 369.28H293.133C292.955 369.28 292.865 369.439 292.865 369.757V388.968C292.865 389.485 292.816 389.832 292.716 390.011C292.617 390.17 292.438 390.249 292.18 390.249H290.214ZM293.104 366.629C293.104 366.629 294.861 366.629 298.375 366.629C301.056 366.629 302.982 366.024 304.154 364.812C305.345 363.601 305.941 361.367 305.941 358.111C305.941 356.721 305.802 355.539 305.524 354.566C305.266 353.593 304.918 352.819 304.481 352.243C304.064 351.667 303.479 351.221 302.724 350.903C301.97 350.565 301.195 350.347 300.401 350.248C299.626 350.148 298.673 350.099 297.542 350.099H293.104C292.945 350.099 292.865 350.228 292.865 350.486V366.183C292.865 366.48 292.945 366.629 293.104 366.629Z" fill="black"/>
<path d="M209.276 387.895C211.083 387.895 212.453 387.418 213.386 386.465C214.319 385.492 215.014 383.626 215.471 380.866C215.948 378.086 216.186 374.015 216.186 368.654C216.186 363.709 215.968 359.897 215.531 357.216C215.094 354.536 214.389 352.629 213.416 351.498C212.443 350.366 211.063 349.8 209.276 349.8C207.528 349.8 206.168 350.405 205.195 351.617C204.222 352.808 203.517 354.754 203.081 357.455C202.644 360.135 202.425 363.868 202.425 368.654C202.425 373.916 202.654 377.937 203.11 380.717C203.587 383.477 204.292 385.363 205.225 386.376C206.178 387.389 207.528 387.895 209.276 387.895ZM209.276 390.665C207.707 390.665 206.387 390.466 205.314 390.069C204.242 389.672 203.279 388.997 202.425 388.044C201.591 387.091 200.926 385.77 200.43 384.083C199.953 382.375 199.596 380.28 199.357 377.798C199.119 375.296 199 372.248 199 368.654C199 363.094 199.347 358.755 200.042 355.638C200.737 352.5 201.81 350.276 203.259 348.966C204.729 347.655 206.734 347 209.276 347C211.877 347 213.903 347.635 215.352 348.906C216.802 350.177 217.874 352.381 218.569 355.519C219.264 358.636 219.611 363.014 219.611 368.654C219.611 372.288 219.492 375.365 219.254 377.887C219.016 380.389 218.658 382.484 218.182 384.172C217.705 385.86 217.04 387.18 216.186 388.133C215.332 389.067 214.359 389.722 213.267 390.099C212.195 390.476 210.864 390.665 209.276 390.665Z" fill="black"/>
</svg>
