<svg width="65" height="92" viewBox="0 0 65 92" fill="none" xmlns="http://www.w3.org/2000/svg">
<path d="M59.2433 72.9056C61.8703 72.9056 64 70.776 64 68.1489V41.7095C64 39.0825 61.8703 36.9528 59.2433 36.9528H58.7148V72.9056H59.2433Z" fill="#EFA35D"/>
<path d="M32.7114 1V36.9528V54.9292V72.9056V90.8754H35.1955C36.509 90.8754 37.5738 89.8106 37.5738 88.4971V72.9056V36.9528V5.75671C37.5738 3.12965 35.4442 1 32.8171 1H32.7114Z" fill="#EFA35D"/>
<path d="M32.7114 1V36.9528M32.7114 1L1 54.9292M32.7114 1H32.8171C35.4442 1 37.5738 3.12965 37.5738 5.75671V36.9528M32.7114 36.9528H11.5705M32.7114 36.9528V54.9292V72.9056V90.8754H35.1955C36.509 90.8754 37.5738 89.8106 37.5738 88.4971V72.9056M32.7114 36.9528H37.5738M37.5738 36.9528V72.9056M37.5738 36.9528H58.7148M37.5738 72.9056H58.7148M58.7148 36.9528H59.2433C61.8703 36.9528 64 39.0825 64 41.7095V68.1489C64 70.776 61.8703 72.9056 59.2433 72.9056H58.7148M58.7148 36.9528V72.9056" stroke="black" stroke-linecap="round" stroke-linejoin="round"/>
</svg>
