<svg width="132" height="124" viewBox="0 0 132 124" fill="none" xmlns="http://www.w3.org/2000/svg">
<path d="M94.3136 108.511L90.4706 77.7674C89.3444 68.7596 81.6872 62 72.6098 62H59.3894C50.3118 62 42.6546 68.7596 41.5286 77.7674L37.6856 108.511C36.7904 115.674 42.375 122 49.5929 122H82.406C89.624 122 95.2088 115.674 94.3136 108.511Z" fill="#EFA35D"/>
<path d="M65.9996 38C75.9407 38 83.9996 29.9411 83.9996 20C83.9996 10.0589 75.9407 2 65.9996 2C56.0584 2 47.9996 10.0589 47.9996 20C47.9996 29.9411 56.0584 38 65.9996 38Z" fill="#EFA35D"/>
<path d="M17.9996 56C24.627 56 29.9996 50.6274 29.9996 44C29.9996 37.3726 24.627 32 17.9996 32C11.3721 32 5.99956 37.3726 5.99956 44C5.99956 50.6274 11.3721 56 17.9996 56Z" fill="#EFA35D"/>
<path d="M114 56C120.627 56 126 50.6274 126 44C126 37.3726 120.627 32 114 32C107.372 32 102 37.3726 102 44C102 50.6274 107.372 56 114 56Z" fill="#EFA35D"/>
<path d="M17.9996 74H16.1651C10.299 74 5.29276 78.2408 4.32838 84.0272L2.32834 96.0272C1.10932 103.342 6.7498 110 14.1651 110H35.9996" fill="#EFA35D"/>
<path d="M114 74H115.834C121.7 74 126.706 78.2408 127.671 84.0272L129.671 96.0272C130.89 103.342 125.25 110 117.835 110C110.865 110 102.571 110 95.9996 110" fill="#EFA35D"/>
<path d="M94.3136 108.511L95.5043 108.363L95.5043 108.363L94.3136 108.511ZM90.4706 77.7674L91.6613 77.6186L91.6613 77.6185L90.4706 77.7674ZM41.5286 77.7674L42.7194 77.9162L41.5286 77.7674ZM37.6856 108.511L36.4949 108.363L37.6856 108.511ZM17.9996 75.2C18.6623 75.2 19.1996 74.6627 19.1996 74C19.1996 73.3373 18.6623 72.8 17.9996 72.8V75.2ZM4.32838 84.0272L5.51205 84.2245L5.51206 84.2245L4.32838 84.0272ZM2.32834 96.0272L1.14467 95.8299L1.14467 95.8299L2.32834 96.0272ZM35.9996 111.2C36.6623 111.2 37.1996 110.663 37.1996 110C37.1996 109.337 36.6623 108.8 35.9996 108.8V111.2ZM114 72.8C113.337 72.8 112.8 73.3373 112.8 74C112.8 74.6627 113.337 75.2 114 75.2V72.8ZM127.671 84.0272L126.487 84.2244L126.487 84.2245L127.671 84.0272ZM129.671 96.0272L130.855 95.83L130.855 95.8299L129.671 96.0272ZM95.9996 108.8C95.3368 108.8 94.7996 109.337 94.7996 110C94.7996 110.663 95.3368 111.2 95.9996 111.2V108.8ZM95.5043 108.363L91.6613 77.6186L89.2798 77.9162L93.1228 108.66L95.5043 108.363ZM91.6613 77.6185C90.46 68.0103 82.2924 60.8 72.6098 60.8V63.2C81.082 63.2 88.2287 69.5089 89.2798 77.9163L91.6613 77.6185ZM59.3894 60.8C49.7066 60.8 41.5389 68.0103 40.3379 77.6186L42.7194 77.9162C43.7703 69.5089 50.917 63.2 59.3894 63.2V60.8ZM40.3379 77.6186L36.4949 108.363L38.8764 108.66L42.7194 77.9162L40.3379 77.6186ZM36.4949 108.363C35.5101 116.241 41.6532 123.2 49.5929 123.2V120.8C43.0968 120.8 38.0706 115.106 38.8764 108.66L36.4949 108.363ZM82.406 123.2C90.3458 123.2 96.489 116.241 95.5043 108.363L93.1228 108.66C93.9285 115.106 88.9022 120.8 82.406 120.8V123.2ZM82.7996 20C82.7996 29.2784 75.2779 36.8 65.9996 36.8V39.2C76.6034 39.2 85.1996 30.6039 85.1996 20H82.7996ZM65.9996 36.8C56.7212 36.8 49.1996 29.2784 49.1996 20H46.7996C46.7996 30.6039 55.3957 39.2 65.9996 39.2V36.8ZM49.1996 20C49.1996 10.7216 56.7212 3.2 65.9996 3.2V0.8C55.3957 0.8 46.7996 9.39613 46.7996 20H49.1996ZM65.9996 3.2C75.2779 3.2 82.7996 10.7216 82.7996 20H85.1996C85.1996 9.39613 76.6034 0.8 65.9996 0.8V3.2ZM28.7996 44C28.7996 49.9647 23.9642 54.8 17.9996 54.8V57.2C25.2897 57.2 31.1996 51.2902 31.1996 44H28.7996ZM17.9996 54.8C12.0349 54.8 7.19956 49.9647 7.19956 44H4.79956C4.79956 51.2902 10.7094 57.2 17.9996 57.2V54.8ZM7.19956 44C7.19956 38.0353 12.0349 33.2 17.9996 33.2V30.8C10.7094 30.8 4.79956 36.7098 4.79956 44H7.19956ZM17.9996 33.2C23.9642 33.2 28.7996 38.0353 28.7996 44H31.1996C31.1996 36.7098 25.2897 30.8 17.9996 30.8V33.2ZM124.8 44C124.8 49.9647 119.964 54.8 114 54.8V57.2C121.29 57.2 127.2 51.2902 127.2 44H124.8ZM114 54.8C108.035 54.8 103.2 49.9647 103.2 44H100.8C100.8 51.2902 106.709 57.2 114 57.2V54.8ZM103.2 44C103.2 38.0353 108.035 33.2 114 33.2V30.8C106.709 30.8 100.8 36.7098 100.8 44H103.2ZM114 33.2C119.964 33.2 124.8 38.0353 124.8 44H127.2C127.2 36.7098 121.29 30.8 114 30.8V33.2ZM17.9996 72.8H16.1651V75.2H17.9996V72.8ZM16.1651 72.8C9.71245 72.8 4.20553 77.4649 3.14471 83.8299L5.51206 84.2245C6.38 79.0167 10.8856 75.2 16.1651 75.2V72.8ZM3.14471 83.8299L1.14467 95.8299L3.51201 96.2245L5.51205 84.2245L3.14471 83.8299ZM1.14467 95.8299C-0.19625 103.876 6.00828 111.2 14.1651 111.2V108.8C7.49133 108.8 2.41489 102.808 3.51202 96.2245L1.14467 95.8299ZM14.1651 111.2H35.9996V108.8H14.1651V111.2ZM114 75.2H115.834V72.8H114V75.2ZM115.834 75.2C121.113 75.2 125.619 79.0167 126.487 84.2244L128.854 83.83C127.794 77.4649 122.287 72.8 115.834 72.8V75.2ZM126.487 84.2245L128.487 96.2245L130.855 95.8299L128.854 83.8299L126.487 84.2245ZM128.487 96.2244C129.584 102.808 124.508 108.8 117.835 108.8V111.2C125.992 111.2 132.195 103.876 130.855 95.83L128.487 96.2244ZM117.835 108.8C117.821 108.8 117.808 108.8 117.794 108.8C117.78 108.8 117.767 108.8 117.753 108.8C117.739 108.8 117.726 108.8 117.712 108.8C117.698 108.8 117.685 108.8 117.671 108.8C117.658 108.8 117.644 108.8 117.63 108.8C117.617 108.8 117.603 108.8 117.589 108.8C117.576 108.8 117.562 108.8 117.548 108.8C117.534 108.8 117.521 108.8 117.507 108.8C117.493 108.8 117.48 108.8 117.466 108.8C117.452 108.8 117.439 108.8 117.425 108.8C117.411 108.8 117.397 108.8 117.384 108.8C117.37 108.8 117.356 108.8 117.343 108.8C117.329 108.8 117.315 108.8 117.301 108.8C117.288 108.8 117.274 108.8 117.26 108.8C117.246 108.8 117.233 108.8 117.219 108.8C117.205 108.8 117.191 108.8 117.178 108.8C117.164 108.8 117.15 108.8 117.136 108.8C117.122 108.8 117.109 108.8 117.095 108.8C117.081 108.8 117.067 108.8 117.053 108.8C117.04 108.8 117.026 108.8 117.012 108.8C116.998 108.8 116.984 108.8 116.971 108.8C116.957 108.8 116.943 108.8 116.929 108.8C116.915 108.8 116.902 108.8 116.888 108.8C116.874 108.8 116.86 108.8 116.846 108.8C116.832 108.8 116.818 108.8 116.805 108.8C116.791 108.8 116.777 108.8 116.763 108.8C116.749 108.8 116.735 108.8 116.721 108.8C116.708 108.8 116.694 108.8 116.68 108.8C116.666 108.8 116.652 108.8 116.638 108.8C116.624 108.8 116.61 108.8 116.597 108.8C116.583 108.8 116.569 108.8 116.555 108.8C116.541 108.8 116.527 108.8 116.513 108.8C116.499 108.8 116.485 108.8 116.471 108.8C116.457 108.8 116.443 108.8 116.43 108.8C116.416 108.8 116.402 108.8 116.388 108.8C116.374 108.8 116.36 108.8 116.346 108.8C116.332 108.8 116.318 108.8 116.304 108.8C116.29 108.8 116.276 108.8 116.262 108.8C116.248 108.8 116.234 108.8 116.22 108.8C116.206 108.8 116.192 108.8 116.178 108.8C116.164 108.8 116.15 108.8 116.136 108.8C116.122 108.8 116.108 108.8 116.094 108.8C116.08 108.8 116.066 108.8 116.052 108.8C116.038 108.8 116.024 108.8 116.01 108.8C115.996 108.8 115.982 108.8 115.968 108.8C115.954 108.8 115.94 108.8 115.926 108.8C115.912 108.8 115.898 108.8 115.884 108.8C115.87 108.8 115.856 108.8 115.842 108.8C115.828 108.8 115.814 108.8 115.8 108.8C115.786 108.8 115.772 108.8 115.758 108.8C115.744 108.8 115.73 108.8 115.715 108.8C115.701 108.8 115.687 108.8 115.673 108.8C115.659 108.8 115.645 108.8 115.631 108.8C115.617 108.8 115.603 108.8 115.589 108.8C115.575 108.8 115.561 108.8 115.546 108.8C115.532 108.8 115.518 108.8 115.504 108.8C115.49 108.8 115.476 108.8 115.462 108.8C115.448 108.8 115.434 108.8 115.419 108.8C115.405 108.8 115.391 108.8 115.377 108.8C115.363 108.8 115.349 108.8 115.335 108.8C115.321 108.8 115.306 108.8 115.292 108.8C115.278 108.8 115.264 108.8 115.25 108.8C115.236 108.8 115.221 108.8 115.207 108.8C115.193 108.8 115.179 108.8 115.165 108.8C115.151 108.8 115.137 108.8 115.122 108.8C115.108 108.8 115.094 108.8 115.08 108.8C115.066 108.8 115.051 108.8 115.037 108.8C115.023 108.8 115.009 108.8 114.995 108.8C114.98 108.8 114.966 108.8 114.952 108.8C114.938 108.8 114.924 108.8 114.909 108.8C114.895 108.8 114.881 108.8 114.867 108.8C114.853 108.8 114.838 108.8 114.824 108.8C114.81 108.8 114.796 108.8 114.781 108.8C114.767 108.8 114.753 108.8 114.739 108.8C114.725 108.8 114.71 108.8 114.696 108.8C114.682 108.8 114.668 108.8 114.653 108.8C114.639 108.8 114.625 108.8 114.611 108.8C114.596 108.8 114.582 108.8 114.568 108.8C114.554 108.8 114.539 108.8 114.525 108.8C114.511 108.8 114.496 108.8 114.482 108.8C114.468 108.8 114.454 108.8 114.439 108.8C114.425 108.8 114.411 108.8 114.396 108.8C114.382 108.8 114.368 108.8 114.354 108.8C114.339 108.8 114.325 108.8 114.311 108.8C114.296 108.8 114.282 108.8 114.268 108.8C114.253 108.8 114.239 108.8 114.225 108.8C114.211 108.8 114.196 108.8 114.182 108.8C114.168 108.8 114.153 108.8 114.139 108.8C114.125 108.8 114.11 108.8 114.096 108.8C114.082 108.8 114.067 108.8 114.053 108.8C114.039 108.8 114.024 108.8 114.01 108.8C113.996 108.8 113.981 108.8 113.967 108.8C113.953 108.8 113.938 108.8 113.924 108.8C113.909 108.8 113.895 108.8 113.881 108.8C113.866 108.8 113.852 108.8 113.838 108.8C113.823 108.8 113.809 108.8 113.795 108.8C113.78 108.8 113.766 108.8 113.751 108.8C113.737 108.8 113.723 108.8 113.708 108.8C113.694 108.8 113.679 108.8 113.665 108.8C113.651 108.8 113.636 108.8 113.622 108.8C113.607 108.8 113.593 108.8 113.579 108.8C113.564 108.8 113.55 108.8 113.535 108.8C113.521 108.8 113.507 108.8 113.492 108.8C113.478 108.8 113.463 108.8 113.449 108.8C113.435 108.8 113.42 108.8 113.406 108.8C113.391 108.8 113.377 108.8 113.362 108.8C113.348 108.8 113.334 108.8 113.319 108.8C113.305 108.8 113.29 108.8 113.276 108.8C113.261 108.8 113.247 108.8 113.233 108.8C113.218 108.8 113.204 108.8 113.189 108.8C113.175 108.8 113.16 108.8 113.146 108.8C113.131 108.8 113.117 108.8 113.102 108.8C113.088 108.8 113.074 108.8 113.059 108.8C113.045 108.8 113.03 108.8 113.016 108.8C113.001 108.8 112.987 108.8 112.972 108.8C112.958 108.8 112.943 108.8 112.929 108.8C112.914 108.8 112.9 108.8 112.885 108.8C112.871 108.8 112.856 108.8 112.842 108.8C112.827 108.8 112.813 108.8 112.798 108.8C112.784 108.8 112.769 108.8 112.755 108.8C112.74 108.8 112.726 108.8 112.711 108.8C112.697 108.8 112.682 108.8 112.668 108.8C112.653 108.8 112.639 108.8 112.624 108.8C112.61 108.8 112.595 108.8 112.581 108.8C112.566 108.8 112.552 108.8 112.537 108.8C112.523 108.8 112.508 108.8 112.494 108.8C112.479 108.8 112.465 108.8 112.45 108.8C112.436 108.8 112.421 108.8 112.407 108.8C112.392 108.8 112.377 108.8 112.363 108.8C112.348 108.8 112.334 108.8 112.319 108.8C112.305 108.8 112.29 108.8 112.276 108.8C112.261 108.8 112.247 108.8 112.232 108.8C112.217 108.8 112.203 108.8 112.188 108.8C112.174 108.8 112.159 108.8 112.145 108.8C112.13 108.8 112.116 108.8 112.101 108.8C112.086 108.8 112.072 108.8 112.057 108.8C112.043 108.8 112.028 108.8 112.014 108.8C111.999 108.8 111.984 108.8 111.97 108.8C111.955 108.8 111.941 108.8 111.926 108.8C111.912 108.8 111.897 108.8 111.882 108.8C111.868 108.8 111.853 108.8 111.839 108.8C111.824 108.8 111.809 108.8 111.795 108.8C111.78 108.8 111.766 108.8 111.751 108.8C111.737 108.8 111.722 108.8 111.707 108.8C111.693 108.8 111.678 108.8 111.664 108.8C111.649 108.8 111.634 108.8 111.62 108.8C111.605 108.8 111.591 108.8 111.576 108.8C111.561 108.8 111.547 108.8 111.532 108.8C111.517 108.8 111.503 108.8 111.488 108.8C111.474 108.8 111.459 108.8 111.444 108.8C111.43 108.8 111.415 108.8 111.401 108.8C111.386 108.8 111.371 108.8 111.357 108.8C111.342 108.8 111.327 108.8 111.313 108.8C111.298 108.8 111.284 108.8 111.269 108.8C111.254 108.8 111.24 108.8 111.225 108.8C111.21 108.8 111.196 108.8 111.181 108.8C111.166 108.8 111.152 108.8 111.137 108.8C111.123 108.8 111.108 108.8 111.093 108.8C111.079 108.8 111.064 108.8 111.049 108.8C111.035 108.8 111.02 108.8 111.005 108.8C110.991 108.8 110.976 108.8 110.961 108.8C110.947 108.8 110.932 108.8 110.917 108.8C110.903 108.8 110.888 108.8 110.874 108.8C110.859 108.8 110.844 108.8 110.83 108.8C110.815 108.8 110.8 108.8 110.786 108.8C110.771 108.8 110.756 108.8 110.742 108.8C110.727 108.8 110.712 108.8 110.698 108.8C110.683 108.8 110.668 108.8 110.654 108.8C110.639 108.8 110.624 108.8 110.61 108.8C110.595 108.8 110.58 108.8 110.566 108.8C110.551 108.8 110.536 108.8 110.522 108.8C110.507 108.8 110.492 108.8 110.477 108.8C110.463 108.8 110.448 108.8 110.433 108.8C110.419 108.8 110.404 108.8 110.389 108.8C110.375 108.8 110.36 108.8 110.345 108.8C110.331 108.8 110.316 108.8 110.301 108.8C110.287 108.8 110.272 108.8 110.257 108.8C110.243 108.8 110.228 108.8 110.213 108.8C110.198 108.8 110.184 108.8 110.169 108.8C110.154 108.8 110.14 108.8 110.125 108.8C110.11 108.8 110.096 108.8 110.081 108.8C110.066 108.8 110.051 108.8 110.037 108.8C110.022 108.8 110.007 108.8 109.993 108.8C109.978 108.8 109.963 108.8 109.949 108.8C109.934 108.8 109.919 108.8 109.904 108.8C109.89 108.8 109.875 108.8 109.86 108.8C109.846 108.8 109.831 108.8 109.816 108.8C109.802 108.8 109.787 108.8 109.772 108.8C109.757 108.8 109.743 108.8 109.728 108.8C109.713 108.8 109.699 108.8 109.684 108.8C109.669 108.8 109.654 108.8 109.64 108.8C109.625 108.8 109.61 108.8 109.596 108.8C109.581 108.8 109.566 108.8 109.551 108.8C109.537 108.8 109.522 108.8 109.507 108.8C109.493 108.8 109.478 108.8 109.463 108.8C109.448 108.8 109.434 108.8 109.419 108.8C109.404 108.8 109.389 108.8 109.375 108.8C109.36 108.8 109.345 108.8 109.331 108.8C109.316 108.8 109.301 108.8 109.286 108.8C109.272 108.8 109.257 108.8 109.242 108.8C109.228 108.8 109.213 108.8 109.198 108.8C109.183 108.8 109.169 108.8 109.154 108.8C109.139 108.8 109.124 108.8 109.11 108.8C109.095 108.8 109.08 108.8 109.066 108.8C109.051 108.8 109.036 108.8 109.021 108.8C109.007 108.8 108.992 108.8 108.977 108.8C108.962 108.8 108.948 108.8 108.933 108.8C108.918 108.8 108.903 108.8 108.889 108.8C108.874 108.8 108.859 108.8 108.845 108.8C108.83 108.8 108.815 108.8 108.8 108.8C108.786 108.8 108.771 108.8 108.756 108.8C108.741 108.8 108.727 108.8 108.712 108.8C108.697 108.8 108.682 108.8 108.668 108.8C108.653 108.8 108.638 108.8 108.624 108.8C108.609 108.8 108.594 108.8 108.579 108.8C108.565 108.8 108.55 108.8 108.535 108.8C108.52 108.8 108.506 108.8 108.491 108.8C108.476 108.8 108.461 108.8 108.447 108.8C108.432 108.8 108.417 108.8 108.402 108.8C108.388 108.8 108.373 108.8 108.358 108.8C108.344 108.8 108.329 108.8 108.314 108.8C108.299 108.8 108.285 108.8 108.27 108.8C108.255 108.8 108.24 108.8 108.226 108.8C108.211 108.8 108.196 108.8 108.181 108.8C108.167 108.8 108.152 108.8 108.137 108.8C108.122 108.8 108.108 108.8 108.093 108.8C108.078 108.8 108.064 108.8 108.049 108.8C108.034 108.8 108.019 108.8 108.005 108.8C107.99 108.8 107.975 108.8 107.96 108.8C107.946 108.8 107.931 108.8 107.916 108.8C107.901 108.8 107.887 108.8 107.872 108.8C107.857 108.8 107.842 108.8 107.828 108.8C107.813 108.8 107.798 108.8 107.784 108.8C107.769 108.8 107.754 108.8 107.739 108.8C107.725 108.8 107.71 108.8 107.695 108.8C107.68 108.8 107.666 108.8 107.651 108.8C107.636 108.8 107.621 108.8 107.607 108.8C107.592 108.8 107.577 108.8 107.563 108.8C107.548 108.8 107.533 108.8 107.518 108.8C107.504 108.8 107.489 108.8 107.474 108.8C107.459 108.8 107.445 108.8 107.43 108.8C107.415 108.8 107.401 108.8 107.386 108.8C107.371 108.8 107.356 108.8 107.342 108.8C107.327 108.8 107.312 108.8 107.297 108.8C107.283 108.8 107.268 108.8 107.253 108.8C107.239 108.8 107.224 108.8 107.209 108.8C107.194 108.8 107.18 108.8 107.165 108.8C107.15 108.8 107.135 108.8 107.121 108.8C107.106 108.8 107.091 108.8 107.077 108.8C107.062 108.8 107.047 108.8 107.032 108.8C107.018 108.8 107.003 108.8 106.988 108.8C106.974 108.8 106.959 108.8 106.944 108.8C106.929 108.8 106.915 108.8 106.9 108.8C106.885 108.8 106.871 108.8 106.856 108.8C106.841 108.8 106.826 108.8 106.812 108.8C106.797 108.8 106.782 108.8 106.768 108.8C106.753 108.8 106.738 108.8 106.723 108.8C106.709 108.8 106.694 108.8 106.679 108.8C106.665 108.8 106.65 108.8 106.635 108.8C106.62 108.8 106.606 108.8 106.591 108.8C106.576 108.8 106.562 108.8 106.547 108.8C106.532 108.8 106.518 108.8 106.503 108.8C106.488 108.8 106.473 108.8 106.459 108.8C106.444 108.8 106.429 108.8 106.415 108.8C106.4 108.8 106.385 108.8 106.371 108.8C106.356 108.8 106.341 108.8 106.326 108.8C106.312 108.8 106.297 108.8 106.282 108.8C106.268 108.8 106.253 108.8 106.238 108.8C106.224 108.8 106.209 108.8 106.194 108.8C106.18 108.8 106.165 108.8 106.15 108.8C106.135 108.8 106.121 108.8 106.106 108.8C106.091 108.8 106.077 108.8 106.062 108.8C106.047 108.8 106.033 108.8 106.018 108.8C106.003 108.8 105.989 108.8 105.974 108.8C105.959 108.8 105.945 108.8 105.93 108.8C105.915 108.8 105.901 108.8 105.886 108.8C105.871 108.8 105.857 108.8 105.842 108.8C105.827 108.8 105.813 108.8 105.798 108.8C105.783 108.8 105.769 108.8 105.754 108.8C105.739 108.8 105.725 108.8 105.71 108.8C105.695 108.8 105.681 108.8 105.666 108.8C105.651 108.8 105.637 108.8 105.622 108.8C105.607 108.8 105.593 108.8 105.578 108.8C105.563 108.8 105.549 108.8 105.534 108.8C105.519 108.8 105.505 108.8 105.49 108.8C105.475 108.8 105.461 108.8 105.446 108.8C105.432 108.8 105.417 108.8 105.402 108.8C105.388 108.8 105.373 108.8 105.358 108.8C105.344 108.8 105.329 108.8 105.314 108.8C105.3 108.8 105.285 108.8 105.271 108.8C105.256 108.8 105.241 108.8 105.227 108.8C105.212 108.8 105.197 108.8 105.183 108.8C105.168 108.8 105.153 108.8 105.139 108.8C105.124 108.8 105.11 108.8 105.095 108.8C105.08 108.8 105.066 108.8 105.051 108.8C105.037 108.8 105.022 108.8 105.007 108.8C104.993 108.8 104.978 108.8 104.963 108.8C104.949 108.8 104.934 108.8 104.92 108.8C104.905 108.8 104.89 108.8 104.876 108.8C104.861 108.8 104.847 108.8 104.832 108.8C104.817 108.8 104.803 108.8 104.788 108.8C104.774 108.8 104.759 108.8 104.744 108.8C104.73 108.8 104.715 108.8 104.701 108.8C104.686 108.8 104.671 108.8 104.657 108.8C104.642 108.8 104.628 108.8 104.613 108.8C104.599 108.8 104.584 108.8 104.569 108.8C104.555 108.8 104.54 108.8 104.526 108.8C104.511 108.8 104.496 108.8 104.482 108.8C104.467 108.8 104.453 108.8 104.438 108.8C104.424 108.8 104.409 108.8 104.395 108.8C104.38 108.8 104.365 108.8 104.351 108.8C104.336 108.8 104.322 108.8 104.307 108.8C104.293 108.8 104.278 108.8 104.264 108.8C104.249 108.8 104.234 108.8 104.22 108.8C104.205 108.8 104.191 108.8 104.176 108.8C104.162 108.8 104.147 108.8 104.133 108.8C104.118 108.8 104.104 108.8 104.089 108.8C104.074 108.8 104.06 108.8 104.045 108.8C104.031 108.8 104.016 108.8 104.002 108.8C103.987 108.8 103.973 108.8 103.958 108.8C103.944 108.8 103.929 108.8 103.915 108.8C103.9 108.8 103.886 108.8 103.871 108.8C103.857 108.8 103.842 108.8 103.828 108.8C103.813 108.8 103.799 108.8 103.784 108.8C103.77 108.8 103.755 108.8 103.741 108.8C103.726 108.8 103.712 108.8 103.697 108.8C103.683 108.8 103.668 108.8 103.654 108.8C103.639 108.8 103.625 108.8 103.61 108.8C103.596 108.8 103.581 108.8 103.567 108.8C103.552 108.8 103.538 108.8 103.523 108.8C103.509 108.8 103.494 108.8 103.48 108.8C103.465 108.8 103.451 108.8 103.436 108.8C103.422 108.8 103.408 108.8 103.393 108.8C103.379 108.8 103.364 108.8 103.35 108.8C103.335 108.8 103.321 108.8 103.306 108.8C103.292 108.8 103.277 108.8 103.263 108.8C103.249 108.8 103.234 108.8 103.22 108.8C103.205 108.8 103.191 108.8 103.176 108.8C103.162 108.8 103.148 108.8 103.133 108.8C103.119 108.8 103.104 108.8 103.09 108.8C103.075 108.8 103.061 108.8 103.047 108.8C103.032 108.8 103.018 108.8 103.003 108.8C102.989 108.8 102.974 108.8 102.96 108.8C102.946 108.8 102.931 108.8 102.917 108.8C102.902 108.8 102.888 108.8 102.874 108.8C102.859 108.8 102.845 108.8 102.83 108.8C102.816 108.8 102.802 108.8 102.787 108.8C102.773 108.8 102.759 108.8 102.744 108.8C102.73 108.8 102.715 108.8 102.701 108.8C102.687 108.8 102.672 108.8 102.658 108.8C102.644 108.8 102.629 108.8 102.615 108.8C102.6 108.8 102.586 108.8 102.572 108.8C102.557 108.8 102.543 108.8 102.529 108.8C102.514 108.8 102.5 108.8 102.486 108.8C102.471 108.8 102.457 108.8 102.443 108.8C102.428 108.8 102.414 108.8 102.4 108.8C102.385 108.8 102.371 108.8 102.357 108.8C102.342 108.8 102.328 108.8 102.314 108.8C102.299 108.8 102.285 108.8 102.271 108.8C102.256 108.8 102.242 108.8 102.228 108.8C102.213 108.8 102.199 108.8 102.185 108.8C102.171 108.8 102.156 108.8 102.142 108.8C102.128 108.8 102.113 108.8 102.099 108.8C102.085 108.8 102.071 108.8 102.056 108.8C102.042 108.8 102.028 108.8 102.013 108.8C101.999 108.8 101.985 108.8 101.971 108.8C101.956 108.8 101.942 108.8 101.928 108.8C101.914 108.8 101.899 108.8 101.885 108.8C101.871 108.8 101.857 108.8 101.842 108.8C101.828 108.8 101.814 108.8 101.8 108.8C101.785 108.8 101.771 108.8 101.757 108.8C101.743 108.8 101.728 108.8 101.714 108.8C101.7 108.8 101.686 108.8 101.671 108.8C101.657 108.8 101.643 108.8 101.629 108.8C101.615 108.8 101.6 108.8 101.586 108.8C101.572 108.8 101.558 108.8 101.544 108.8C101.529 108.8 101.515 108.8 101.501 108.8C101.487 108.8 101.473 108.8 101.458 108.8C101.444 108.8 101.43 108.8 101.416 108.8C101.402 108.8 101.387 108.8 101.373 108.8C101.359 108.8 101.345 108.8 101.331 108.8C101.317 108.8 101.302 108.8 101.288 108.8C101.274 108.8 101.26 108.8 101.246 108.8C101.232 108.8 101.217 108.8 101.203 108.8C101.189 108.8 101.175 108.8 101.161 108.8C101.147 108.8 101.133 108.8 101.119 108.8C101.104 108.8 101.09 108.8 101.076 108.8C101.062 108.8 101.048 108.8 101.034 108.8C101.02 108.8 101.006 108.8 100.991 108.8C100.977 108.8 100.963 108.8 100.949 108.8C100.935 108.8 100.921 108.8 100.907 108.8C100.893 108.8 100.879 108.8 100.865 108.8C100.851 108.8 100.836 108.8 100.822 108.8C100.808 108.8 100.794 108.8 100.78 108.8C100.766 108.8 100.752 108.8 100.738 108.8C100.724 108.8 100.71 108.8 100.696 108.8C100.682 108.8 100.668 108.8 100.654 108.8C100.64 108.8 100.626 108.8 100.611 108.8C100.597 108.8 100.583 108.8 100.569 108.8C100.555 108.8 100.541 108.8 100.527 108.8C100.513 108.8 100.499 108.8 100.485 108.8C100.471 108.8 100.457 108.8 100.443 108.8C100.429 108.8 100.415 108.8 100.401 108.8C100.387 108.8 100.373 108.8 100.359 108.8C100.345 108.8 100.331 108.8 100.317 108.8C100.303 108.8 100.289 108.8 100.275 108.8C100.261 108.8 100.247 108.8 100.233 108.8C100.219 108.8 100.206 108.8 100.192 108.8C100.178 108.8 100.164 108.8 100.15 108.8C100.136 108.8 100.122 108.8 100.108 108.8C100.094 108.8 100.08 108.8 100.066 108.8C100.052 108.8 100.038 108.8 100.024 108.8C100.01 108.8 99.9965 108.8 99.9826 108.8C99.9687 108.8 99.9547 108.8 99.9408 108.8C99.9269 108.8 99.913 108.8 99.8991 108.8C99.8852 108.8 99.8714 108.8 99.8575 108.8C99.8436 108.8 99.8297 108.8 99.8158 108.8C99.8019 108.8 99.7881 108.8 99.7742 108.8C99.7603 108.8 99.7465 108.8 99.7326 108.8C99.7187 108.8 99.7049 108.8 99.691 108.8C99.6772 108.8 99.6633 108.8 99.6495 108.8C99.6357 108.8 99.6218 108.8 99.608 108.8C99.5941 108.8 99.5803 108.8 99.5665 108.8C99.5527 108.8 99.5388 108.8 99.525 108.8C99.5112 108.8 99.4974 108.8 99.4836 108.8C99.4698 108.8 99.456 108.8 99.4422 108.8C99.4284 108.8 99.4146 108.8 99.4008 108.8C99.387 108.8 99.3733 108.8 99.3595 108.8C99.3457 108.8 99.3319 108.8 99.3182 108.8C99.3044 108.8 99.2906 108.8 99.2769 108.8C99.2631 108.8 99.2493 108.8 99.2356 108.8C99.2218 108.8 99.2081 108.8 99.1944 108.8C99.1806 108.8 99.1669 108.8 99.1532 108.8C99.1394 108.8 99.1257 108.8 99.112 108.8C99.0983 108.8 99.0845 108.8 99.0708 108.8C99.0571 108.8 99.0434 108.8 99.0297 108.8C99.016 108.8 99.0023 108.8 98.9886 108.8C98.9749 108.8 98.9612 108.8 98.9475 108.8C98.9339 108.8 98.9202 108.8 98.9065 108.8C98.8928 108.8 98.8792 108.8 98.8655 108.8C98.8519 108.8 98.8382 108.8 98.8245 108.8C98.8109 108.8 98.7972 108.8 98.7836 108.8C98.77 108.8 98.7563 108.8 98.7427 108.8C98.729 108.8 98.7154 108.8 98.7018 108.8C98.6882 108.8 98.6746 108.8 98.6609 108.8C98.6473 108.8 98.6337 108.8 98.6201 108.8C98.6065 108.8 98.5929 108.8 98.5793 108.8C98.5657 108.8 98.5521 108.8 98.5386 108.8C98.525 108.8 98.5114 108.8 98.4978 108.8C98.4843 108.8 98.4707 108.8 98.4571 108.8C98.4436 108.8 98.43 108.8 98.4165 108.8C98.4029 108.8 98.3894 108.8 98.3758 108.8C98.3623 108.8 98.3487 108.8 98.3352 108.8C98.3217 108.8 98.3082 108.8 98.2946 108.8C98.2811 108.8 98.2676 108.8 98.2541 108.8C98.2406 108.8 98.2271 108.8 98.2136 108.8C98.2001 108.8 98.1866 108.8 98.1731 108.8C98.1596 108.8 98.1461 108.8 98.1326 108.8C98.1192 108.8 98.1057 108.8 98.0922 108.8C98.0788 108.8 98.0653 108.8 98.0518 108.8C98.0384 108.8 98.0249 108.8 98.0115 108.8C97.998 108.8 97.9846 108.8 97.9712 108.8C97.9577 108.8 97.9443 108.8 97.9309 108.8C97.9175 108.8 97.904 108.8 97.8906 108.8C97.8772 108.8 97.8638 108.8 97.8504 108.8C97.837 108.8 97.8236 108.8 97.8102 108.8C97.7968 108.8 97.7834 108.8 97.7701 108.8C97.7567 108.8 97.7433 108.8 97.7299 108.8C97.7166 108.8 97.7032 108.8 97.6898 108.8C97.6765 108.8 97.6631 108.8 97.6498 108.8C97.6364 108.8 97.6231 108.8 97.6098 108.8C97.5964 108.8 97.5831 108.8 97.5698 108.8C97.5565 108.8 97.5431 108.8 97.5298 108.8C97.5165 108.8 97.5032 108.8 97.4899 108.8C97.4766 108.8 97.4633 108.8 97.45 108.8C97.4367 108.8 97.4234 108.8 97.4102 108.8C97.3969 108.8 97.3836 108.8 97.3703 108.8C97.3571 108.8 97.3438 108.8 97.3306 108.8C97.3173 108.8 97.3041 108.8 97.2908 108.8C97.2776 108.8 97.2643 108.8 97.2511 108.8C97.2379 108.8 97.2246 108.8 97.2114 108.8C97.1982 108.8 97.185 108.8 97.1718 108.8C97.1586 108.8 97.1454 108.8 97.1322 108.8C97.119 108.8 97.1058 108.8 97.0926 108.8C97.0794 108.8 97.0662 108.8 97.0531 108.8C97.0399 108.8 97.0267 108.8 97.0136 108.8C97.0004 108.8 96.9873 108.8 96.9741 108.8C96.961 108.8 96.9478 108.8 96.9347 108.8C96.9215 108.8 96.9084 108.8 96.8953 108.8C96.8822 108.8 96.869 108.8 96.8559 108.8C96.8428 108.8 96.8297 108.8 96.8166 108.8C96.8035 108.8 96.7904 108.8 96.7773 108.8C96.7642 108.8 96.7512 108.8 96.7381 108.8C96.725 108.8 96.7119 108.8 96.6989 108.8C96.6858 108.8 96.6728 108.8 96.6597 108.8C96.6467 108.8 96.6336 108.8 96.6206 108.8C96.6075 108.8 96.5945 108.8 96.5815 108.8C96.5684 108.8 96.5554 108.8 96.5424 108.8C96.5294 108.8 96.5164 108.8 96.5034 108.8C96.4904 108.8 96.4774 108.8 96.4644 108.8C96.4514 108.8 96.4384 108.8 96.4255 108.8C96.4125 108.8 96.3995 108.8 96.3865 108.8C96.3736 108.8 96.3606 108.8 96.3477 108.8C96.3347 108.8 96.3218 108.8 96.3088 108.8C96.2959 108.8 96.283 108.8 96.27 108.8C96.2571 108.8 96.2442 108.8 96.2313 108.8C96.2184 108.8 96.2055 108.8 96.1926 108.8C96.1797 108.8 96.1668 108.8 96.1539 108.8C96.141 108.8 96.1281 108.8 96.1152 108.8C96.1024 108.8 96.0895 108.8 96.0767 108.8C96.0638 108.8 96.0509 108.8 96.0381 108.8C96.0252 108.8 96.0124 108.8 95.9996 108.8V111.2C96.0124 111.2 96.0252 111.2 96.0381 111.2C96.0509 111.2 96.0638 111.2 96.0767 111.2C96.0895 111.2 96.1024 111.2 96.1152 111.2C96.1281 111.2 96.141 111.2 96.1539 111.2C96.1668 111.2 96.1797 111.2 96.1926 111.2C96.2055 111.2 96.2184 111.2 96.2313 111.2C96.2442 111.2 96.2571 111.2 96.27 111.2C96.283 111.2 96.2959 111.2 96.3088 111.2C96.3218 111.2 96.3347 111.2 96.3477 111.2C96.3606 111.2 96.3736 111.2 96.3865 111.2C96.3995 111.2 96.4125 111.2 96.4255 111.2C96.4384 111.2 96.4514 111.2 96.4644 111.2C96.4774 111.2 96.4904 111.2 96.5034 111.2C96.5164 111.2 96.5294 111.2 96.5424 111.2C96.5554 111.2 96.5684 111.2 96.5815 111.2C96.5945 111.2 96.6075 111.2 96.6206 111.2C96.6336 111.2 96.6467 111.2 96.6597 111.2C96.6728 111.2 96.6858 111.2 96.6989 111.2C96.7119 111.2 96.725 111.2 96.7381 111.2C96.7512 111.2 96.7642 111.2 96.7773 111.2C96.7904 111.2 96.8035 111.2 96.8166 111.2C96.8297 111.2 96.8428 111.2 96.8559 111.2C96.869 111.2 96.8822 111.2 96.8953 111.2C96.9084 111.2 96.9215 111.2 96.9347 111.2C96.9478 111.2 96.961 111.2 96.9741 111.2C96.9873 111.2 97.0004 111.2 97.0136 111.2C97.0267 111.2 97.0399 111.2 97.0531 111.2C97.0662 111.2 97.0794 111.2 97.0926 111.2C97.1058 111.2 97.119 111.2 97.1322 111.2C97.1454 111.2 97.1586 111.2 97.1718 111.2C97.185 111.2 97.1982 111.2 97.2114 111.2C97.2246 111.2 97.2379 111.2 97.2511 111.2C97.2643 111.2 97.2776 111.2 97.2908 111.2C97.3041 111.2 97.3173 111.2 97.3306 111.2C97.3438 111.2 97.3571 111.2 97.3703 111.2C97.3836 111.2 97.3969 111.2 97.4102 111.2C97.4234 111.2 97.4367 111.2 97.45 111.2C97.4633 111.2 97.4766 111.2 97.4899 111.2C97.5032 111.2 97.5165 111.2 97.5298 111.2C97.5431 111.2 97.5565 111.2 97.5698 111.2C97.5831 111.2 97.5964 111.2 97.6098 111.2C97.6231 111.2 97.6364 111.2 97.6498 111.2C97.6631 111.2 97.6765 111.2 97.6898 111.2C97.7032 111.2 97.7166 111.2 97.7299 111.2C97.7433 111.2 97.7567 111.2 97.7701 111.2C97.7834 111.2 97.7968 111.2 97.8102 111.2C97.8236 111.2 97.837 111.2 97.8504 111.2C97.8638 111.2 97.8772 111.2 97.8906 111.2C97.904 111.2 97.9175 111.2 97.9309 111.2C97.9443 111.2 97.9577 111.2 97.9712 111.2C97.9846 111.2 97.998 111.2 98.0115 111.2C98.0249 111.2 98.0384 111.2 98.0518 111.2C98.0653 111.2 98.0788 111.2 98.0922 111.2C98.1057 111.2 98.1192 111.2 98.1326 111.2C98.1461 111.2 98.1596 111.2 98.1731 111.2C98.1866 111.2 98.2001 111.2 98.2136 111.2C98.2271 111.2 98.2406 111.2 98.2541 111.2C98.2676 111.2 98.2811 111.2 98.2946 111.2C98.3082 111.2 98.3217 111.2 98.3352 111.2C98.3487 111.2 98.3623 111.2 98.3758 111.2C98.3894 111.2 98.4029 111.2 98.4165 111.2C98.43 111.2 98.4436 111.2 98.4571 111.2C98.4707 111.2 98.4843 111.2 98.4978 111.2C98.5114 111.2 98.525 111.2 98.5386 111.2C98.5521 111.2 98.5657 111.2 98.5793 111.2C98.5929 111.2 98.6065 111.2 98.6201 111.2C98.6337 111.2 98.6473 111.2 98.6609 111.2C98.6746 111.2 98.6882 111.2 98.7018 111.2C98.7154 111.2 98.729 111.2 98.7427 111.2C98.7563 111.2 98.77 111.2 98.7836 111.2C98.7972 111.2 98.8109 111.2 98.8245 111.2C98.8382 111.2 98.8519 111.2 98.8655 111.2C98.8792 111.2 98.8928 111.2 98.9065 111.2C98.9202 111.2 98.9339 111.2 98.9475 111.2C98.9612 111.2 98.9749 111.2 98.9886 111.2C99.0023 111.2 99.016 111.2 99.0297 111.2C99.0434 111.2 99.0571 111.2 99.0708 111.2C99.0845 111.2 99.0983 111.2 99.112 111.2C99.1257 111.2 99.1394 111.2 99.1532 111.2C99.1669 111.2 99.1806 111.2 99.1944 111.2C99.2081 111.2 99.2218 111.2 99.2356 111.2C99.2493 111.2 99.2631 111.2 99.2769 111.2C99.2906 111.2 99.3044 111.2 99.3182 111.2C99.3319 111.2 99.3457 111.2 99.3595 111.2C99.3733 111.2 99.387 111.2 99.4008 111.2C99.4146 111.2 99.4284 111.2 99.4422 111.2C99.456 111.2 99.4698 111.2 99.4836 111.2C99.4974 111.2 99.5112 111.2 99.525 111.2C99.5388 111.2 99.5527 111.2 99.5665 111.2C99.5803 111.2 99.5941 111.2 99.608 111.2C99.6218 111.2 99.6357 111.2 99.6495 111.2C99.6633 111.2 99.6772 111.2 99.691 111.2C99.7049 111.2 99.7187 111.2 99.7326 111.2C99.7465 111.2 99.7603 111.2 99.7742 111.2C99.7881 111.2 99.8019 111.2 99.8158 111.2C99.8297 111.2 99.8436 111.2 99.8575 111.2C99.8714 111.2 99.8852 111.2 99.8991 111.2C99.913 111.2 99.9269 111.2 99.9408 111.2C99.9547 111.2 99.9687 111.2 99.9826 111.2C99.9965 111.2 100.01 111.2 100.024 111.2C100.038 111.2 100.052 111.2 100.066 111.2C100.08 111.2 100.094 111.2 100.108 111.2C100.122 111.2 100.136 111.2 100.15 111.2C100.164 111.2 100.178 111.2 100.192 111.2C100.206 111.2 100.219 111.2 100.233 111.2C100.247 111.2 100.261 111.2 100.275 111.2C100.289 111.2 100.303 111.2 100.317 111.2C100.331 111.2 100.345 111.2 100.359 111.2C100.373 111.2 100.387 111.2 100.401 111.2C100.415 111.2 100.429 111.2 100.443 111.2C100.457 111.2 100.471 111.2 100.485 111.2C100.499 111.2 100.513 111.2 100.527 111.2C100.541 111.2 100.555 111.2 100.569 111.2C100.583 111.2 100.597 111.2 100.611 111.2C100.626 111.2 100.64 111.2 100.654 111.2C100.668 111.2 100.682 111.2 100.696 111.2C100.71 111.2 100.724 111.2 100.738 111.2C100.752 111.2 100.766 111.2 100.78 111.2C100.794 111.2 100.808 111.2 100.822 111.2C100.836 111.2 100.851 111.2 100.865 111.2C100.879 111.2 100.893 111.2 100.907 111.2C100.921 111.2 100.935 111.2 100.949 111.2C100.963 111.2 100.977 111.2 100.991 111.2C101.006 111.2 101.02 111.2 101.034 111.2C101.048 111.2 101.062 111.2 101.076 111.2C101.09 111.2 101.104 111.2 101.119 111.2C101.133 111.2 101.147 111.2 101.161 111.2C101.175 111.2 101.189 111.2 101.203 111.2C101.217 111.2 101.232 111.2 101.246 111.2C101.26 111.2 101.274 111.2 101.288 111.2C101.302 111.2 101.317 111.2 101.331 111.2C101.345 111.2 101.359 111.2 101.373 111.2C101.387 111.2 101.402 111.2 101.416 111.2C101.43 111.2 101.444 111.2 101.458 111.2C101.473 111.2 101.487 111.2 101.501 111.2C101.515 111.2 101.529 111.2 101.544 111.2C101.558 111.2 101.572 111.2 101.586 111.2C101.6 111.2 101.615 111.2 101.629 111.2C101.643 111.2 101.657 111.2 101.671 111.2C101.686 111.2 101.7 111.2 101.714 111.2C101.728 111.2 101.743 111.2 101.757 111.2C101.771 111.2 101.785 111.2 101.8 111.2C101.814 111.2 101.828 111.2 101.842 111.2C101.857 111.2 101.871 111.2 101.885 111.2C101.899 111.2 101.914 111.2 101.928 111.2C101.942 111.2 101.956 111.2 101.971 111.2C101.985 111.2 101.999 111.2 102.013 111.2C102.028 111.2 102.042 111.2 102.056 111.2C102.071 111.2 102.085 111.2 102.099 111.2C102.113 111.2 102.128 111.2 102.142 111.2C102.156 111.2 102.171 111.2 102.185 111.2C102.199 111.2 102.213 111.2 102.228 111.2C102.242 111.2 102.256 111.2 102.271 111.2C102.285 111.2 102.299 111.2 102.314 111.2C102.328 111.2 102.342 111.2 102.357 111.2C102.371 111.2 102.385 111.2 102.4 111.2C102.414 111.2 102.428 111.2 102.443 111.2C102.457 111.2 102.471 111.2 102.486 111.2C102.5 111.2 102.514 111.2 102.529 111.2C102.543 111.2 102.557 111.2 102.572 111.2C102.586 111.2 102.6 111.2 102.615 111.2C102.629 111.2 102.644 111.2 102.658 111.2C102.672 111.2 102.687 111.2 102.701 111.2C102.715 111.2 102.73 111.2 102.744 111.2C102.759 111.2 102.773 111.2 102.787 111.2C102.802 111.2 102.816 111.2 102.83 111.2C102.845 111.2 102.859 111.2 102.874 111.2C102.888 111.2 102.902 111.2 102.917 111.2C102.931 111.2 102.946 111.2 102.96 111.2C102.974 111.2 102.989 111.2 103.003 111.2C103.018 111.2 103.032 111.2 103.047 111.2C103.061 111.2 103.075 111.2 103.09 111.2C103.104 111.2 103.119 111.2 103.133 111.2C103.148 111.2 103.162 111.2 103.176 111.2C103.191 111.2 103.205 111.2 103.22 111.2C103.234 111.2 103.249 111.2 103.263 111.2C103.277 111.2 103.292 111.2 103.306 111.2C103.321 111.2 103.335 111.2 103.35 111.2C103.364 111.2 103.379 111.2 103.393 111.2C103.408 111.2 103.422 111.2 103.436 111.2C103.451 111.2 103.465 111.2 103.48 111.2C103.494 111.2 103.509 111.2 103.523 111.2C103.538 111.2 103.552 111.2 103.567 111.2C103.581 111.2 103.596 111.2 103.61 111.2C103.625 111.2 103.639 111.2 103.654 111.2C103.668 111.2 103.683 111.2 103.697 111.2C103.712 111.2 103.726 111.2 103.741 111.2C103.755 111.2 103.77 111.2 103.784 111.2C103.799 111.2 103.813 111.2 103.828 111.2C103.842 111.2 103.857 111.2 103.871 111.2C103.886 111.2 103.9 111.2 103.915 111.2C103.929 111.2 103.944 111.2 103.958 111.2C103.973 111.2 103.987 111.2 104.002 111.2C104.016 111.2 104.031 111.2 104.045 111.2C104.06 111.2 104.074 111.2 104.089 111.2C104.104 111.2 104.118 111.2 104.133 111.2C104.147 111.2 104.162 111.2 104.176 111.2C104.191 111.2 104.205 111.2 104.22 111.2C104.234 111.2 104.249 111.2 104.264 111.2C104.278 111.2 104.293 111.2 104.307 111.2C104.322 111.2 104.336 111.2 104.351 111.2C104.365 111.2 104.38 111.2 104.395 111.2C104.409 111.2 104.424 111.2 104.438 111.2C104.453 111.2 104.467 111.2 104.482 111.2C104.496 111.2 104.511 111.2 104.526 111.2C104.54 111.2 104.555 111.2 104.569 111.2C104.584 111.2 104.599 111.2 104.613 111.2C104.628 111.2 104.642 111.2 104.657 111.2C104.671 111.2 104.686 111.2 104.701 111.2C104.715 111.2 104.73 111.2 104.744 111.2C104.759 111.2 104.774 111.2 104.788 111.2C104.803 111.2 104.817 111.2 104.832 111.2C104.847 111.2 104.861 111.2 104.876 111.2C104.89 111.2 104.905 111.2 104.92 111.2C104.934 111.2 104.949 111.2 104.963 111.2C104.978 111.2 104.993 111.2 105.007 111.2C105.022 111.2 105.037 111.2 105.051 111.2C105.066 111.2 105.08 111.2 105.095 111.2C105.11 111.2 105.124 111.2 105.139 111.2C105.153 111.2 105.168 111.2 105.183 111.2C105.197 111.2 105.212 111.2 105.227 111.2C105.241 111.2 105.256 111.2 105.271 111.2C105.285 111.2 105.3 111.2 105.314 111.2C105.329 111.2 105.344 111.2 105.358 111.2C105.373 111.2 105.388 111.2 105.402 111.2C105.417 111.2 105.432 111.2 105.446 111.2C105.461 111.2 105.475 111.2 105.49 111.2C105.505 111.2 105.519 111.2 105.534 111.2C105.549 111.2 105.563 111.2 105.578 111.2C105.593 111.2 105.607 111.2 105.622 111.2C105.637 111.2 105.651 111.2 105.666 111.2C105.681 111.2 105.695 111.2 105.71 111.2C105.725 111.2 105.739 111.2 105.754 111.2C105.769 111.2 105.783 111.2 105.798 111.2C105.813 111.2 105.827 111.2 105.842 111.2C105.857 111.2 105.871 111.2 105.886 111.2C105.901 111.2 105.915 111.2 105.93 111.2C105.945 111.2 105.959 111.2 105.974 111.2C105.989 111.2 106.003 111.2 106.018 111.2C106.033 111.2 106.047 111.2 106.062 111.2C106.077 111.2 106.091 111.2 106.106 111.2C106.121 111.2 106.135 111.2 106.15 111.2C106.165 111.2 106.18 111.2 106.194 111.2C106.209 111.2 106.224 111.2 106.238 111.2C106.253 111.2 106.268 111.2 106.282 111.2C106.297 111.2 106.312 111.2 106.326 111.2C106.341 111.2 106.356 111.2 106.371 111.2C106.385 111.2 106.4 111.2 106.415 111.2C106.429 111.2 106.444 111.2 106.459 111.2C106.473 111.2 106.488 111.2 106.503 111.2C106.518 111.2 106.532 111.2 106.547 111.2C106.562 111.2 106.576 111.2 106.591 111.2C106.606 111.2 106.62 111.2 106.635 111.2C106.65 111.2 106.665 111.2 106.679 111.2C106.694 111.2 106.709 111.2 106.723 111.2C106.738 111.2 106.753 111.2 106.768 111.2C106.782 111.2 106.797 111.2 106.812 111.2C106.826 111.2 106.841 111.2 106.856 111.2C106.871 111.2 106.885 111.2 106.9 111.2C106.915 111.2 106.929 111.2 106.944 111.2C106.959 111.2 106.974 111.2 106.988 111.2C107.003 111.2 107.018 111.2 107.032 111.2C107.047 111.2 107.062 111.2 107.077 111.2C107.091 111.2 107.106 111.2 107.121 111.2C107.135 111.2 107.15 111.2 107.165 111.2C107.18 111.2 107.194 111.2 107.209 111.2C107.224 111.2 107.239 111.2 107.253 111.2C107.268 111.2 107.283 111.2 107.297 111.2C107.312 111.2 107.327 111.2 107.342 111.2C107.356 111.2 107.371 111.2 107.386 111.2C107.401 111.2 107.415 111.2 107.43 111.2C107.445 111.2 107.459 111.2 107.474 111.2C107.489 111.2 107.504 111.2 107.518 111.2C107.533 111.2 107.548 111.2 107.563 111.2C107.577 111.2 107.592 111.2 107.607 111.2C107.621 111.2 107.636 111.2 107.651 111.2C107.666 111.2 107.68 111.2 107.695 111.2C107.71 111.2 107.725 111.2 107.739 111.2C107.754 111.2 107.769 111.2 107.784 111.2C107.798 111.2 107.813 111.2 107.828 111.2C107.842 111.2 107.857 111.2 107.872 111.2C107.887 111.2 107.901 111.2 107.916 111.2C107.931 111.2 107.946 111.2 107.96 111.2C107.975 111.2 107.99 111.2 108.005 111.2C108.019 111.2 108.034 111.2 108.049 111.2C108.064 111.2 108.078 111.2 108.093 111.2C108.108 111.2 108.122 111.2 108.137 111.2C108.152 111.2 108.167 111.2 108.181 111.2C108.196 111.2 108.211 111.2 108.226 111.2C108.24 111.2 108.255 111.2 108.27 111.2C108.285 111.2 108.299 111.2 108.314 111.2C108.329 111.2 108.344 111.2 108.358 111.2C108.373 111.2 108.388 111.2 108.402 111.2C108.417 111.2 108.432 111.2 108.447 111.2C108.461 111.2 108.476 111.2 108.491 111.2C108.506 111.2 108.52 111.2 108.535 111.2C108.55 111.2 108.565 111.2 108.579 111.2C108.594 111.2 108.609 111.2 108.624 111.2C108.638 111.2 108.653 111.2 108.668 111.2C108.682 111.2 108.697 111.2 108.712 111.2C108.727 111.2 108.741 111.2 108.756 111.2C108.771 111.2 108.786 111.2 108.8 111.2C108.815 111.2 108.83 111.2 108.845 111.2C108.859 111.2 108.874 111.2 108.889 111.2C108.903 111.2 108.918 111.2 108.933 111.2C108.948 111.2 108.962 111.2 108.977 111.2C108.992 111.2 109.007 111.2 109.021 111.2C109.036 111.2 109.051 111.2 109.066 111.2C109.08 111.2 109.095 111.2 109.11 111.2C109.124 111.2 109.139 111.2 109.154 111.2C109.169 111.2 109.183 111.2 109.198 111.2C109.213 111.2 109.228 111.2 109.242 111.2C109.257 111.2 109.272 111.2 109.286 111.2C109.301 111.2 109.316 111.2 109.331 111.2C109.345 111.2 109.36 111.2 109.375 111.2C109.389 111.2 109.404 111.2 109.419 111.2C109.434 111.2 109.448 111.2 109.463 111.2C109.478 111.2 109.493 111.2 109.507 111.2C109.522 111.2 109.537 111.2 109.551 111.2C109.566 111.2 109.581 111.2 109.596 111.2C109.61 111.2 109.625 111.2 109.64 111.2C109.654 111.2 109.669 111.2 109.684 111.2C109.699 111.2 109.713 111.2 109.728 111.2C109.743 111.2 109.757 111.2 109.772 111.2C109.787 111.2 109.802 111.2 109.816 111.2C109.831 111.2 109.846 111.2 109.86 111.2C109.875 111.2 109.89 111.2 109.904 111.2C109.919 111.2 109.934 111.2 109.949 111.2C109.963 111.2 109.978 111.2 109.993 111.2C110.007 111.2 110.022 111.2 110.037 111.2C110.051 111.2 110.066 111.2 110.081 111.2C110.096 111.2 110.11 111.2 110.125 111.2C110.14 111.2 110.154 111.2 110.169 111.2C110.184 111.2 110.198 111.2 110.213 111.2C110.228 111.2 110.243 111.2 110.257 111.2C110.272 111.2 110.287 111.2 110.301 111.2C110.316 111.2 110.331 111.2 110.345 111.2C110.36 111.2 110.375 111.2 110.389 111.2C110.404 111.2 110.419 111.2 110.433 111.2C110.448 111.2 110.463 111.2 110.477 111.2C110.492 111.2 110.507 111.2 110.522 111.2C110.536 111.2 110.551 111.2 110.566 111.2C110.58 111.2 110.595 111.2 110.61 111.2C110.624 111.2 110.639 111.2 110.654 111.2C110.668 111.2 110.683 111.2 110.698 111.2C110.712 111.2 110.727 111.2 110.742 111.2C110.756 111.2 110.771 111.2 110.786 111.2C110.8 111.2 110.815 111.2 110.83 111.2C110.844 111.2 110.859 111.2 110.874 111.2C110.888 111.2 110.903 111.2 110.917 111.2C110.932 111.2 110.947 111.2 110.961 111.2C110.976 111.2 110.991 111.2 111.005 111.2C111.02 111.2 111.035 111.2 111.049 111.2C111.064 111.2 111.079 111.2 111.093 111.2C111.108 111.2 111.123 111.2 111.137 111.2C111.152 111.2 111.166 111.2 111.181 111.2C111.196 111.2 111.21 111.2 111.225 111.2C111.24 111.2 111.254 111.2 111.269 111.2C111.284 111.2 111.298 111.2 111.313 111.2C111.327 111.2 111.342 111.2 111.357 111.2C111.371 111.2 111.386 111.2 111.401 111.2C111.415 111.2 111.43 111.2 111.444 111.2C111.459 111.2 111.474 111.2 111.488 111.2C111.503 111.2 111.517 111.2 111.532 111.2C111.547 111.2 111.561 111.2 111.576 111.2C111.591 111.2 111.605 111.2 111.62 111.2C111.634 111.2 111.649 111.2 111.664 111.2C111.678 111.2 111.693 111.2 111.707 111.2C111.722 111.2 111.737 111.2 111.751 111.2C111.766 111.2 111.78 111.2 111.795 111.2C111.809 111.2 111.824 111.2 111.839 111.2C111.853 111.2 111.868 111.2 111.882 111.2C111.897 111.2 111.912 111.2 111.926 111.2C111.941 111.2 111.955 111.2 111.97 111.2C111.984 111.2 111.999 111.2 112.014 111.2C112.028 111.2 112.043 111.2 112.057 111.2C112.072 111.2 112.086 111.2 112.101 111.2C112.116 111.2 112.13 111.2 112.145 111.2C112.159 111.2 112.174 111.2 112.188 111.2C112.203 111.2 112.217 111.2 112.232 111.2C112.247 111.2 112.261 111.2 112.276 111.2C112.29 111.2 112.305 111.2 112.319 111.2C112.334 111.2 112.348 111.2 112.363 111.2C112.377 111.2 112.392 111.2 112.407 111.2C112.421 111.2 112.436 111.2 112.45 111.2C112.465 111.2 112.479 111.2 112.494 111.2C112.508 111.2 112.523 111.2 112.537 111.2C112.552 111.2 112.566 111.2 112.581 111.2C112.595 111.2 112.61 111.2 112.624 111.2C112.639 111.2 112.653 111.2 112.668 111.2C112.682 111.2 112.697 111.2 112.711 111.2C112.726 111.2 112.74 111.2 112.755 111.2C112.769 111.2 112.784 111.2 112.798 111.2C112.813 111.2 112.827 111.2 112.842 111.2C112.856 111.2 112.871 111.2 112.885 111.2C112.9 111.2 112.914 111.2 112.929 111.2C112.943 111.2 112.958 111.2 112.972 111.2C112.987 111.2 113.001 111.2 113.016 111.2C113.03 111.2 113.045 111.2 113.059 111.2C113.074 111.2 113.088 111.2 113.102 111.2C113.117 111.2 113.131 111.2 113.146 111.2C113.16 111.2 113.175 111.2 113.189 111.2C113.204 111.2 113.218 111.2 113.233 111.2C113.247 111.2 113.261 111.2 113.276 111.2C113.29 111.2 113.305 111.2 113.319 111.2C113.334 111.2 113.348 111.2 113.362 111.2C113.377 111.2 113.391 111.2 113.406 111.2C113.42 111.2 113.435 111.2 113.449 111.2C113.463 111.2 113.478 111.2 113.492 111.2C113.507 111.2 113.521 111.2 113.535 111.2C113.55 111.2 113.564 111.2 113.579 111.2C113.593 111.2 113.607 111.2 113.622 111.2C113.636 111.2 113.651 111.2 113.665 111.2C113.679 111.2 113.694 111.2 113.708 111.2C113.723 111.2 113.737 111.2 113.751 111.2C113.766 111.2 113.78 111.2 113.795 111.2C113.809 111.2 113.823 111.2 113.838 111.2C113.852 111.2 113.866 111.2 113.881 111.2C113.895 111.2 113.909 111.2 113.924 111.2C113.938 111.2 113.953 111.2 113.967 111.2C113.981 111.2 113.996 111.2 114.01 111.2C114.024 111.2 114.039 111.2 114.053 111.2C114.067 111.2 114.082 111.2 114.096 111.2C114.11 111.2 114.125 111.2 114.139 111.2C114.153 111.2 114.168 111.2 114.182 111.2C114.196 111.2 114.211 111.2 114.225 111.2C114.239 111.2 114.253 111.2 114.268 111.2C114.282 111.2 114.296 111.2 114.311 111.2C114.325 111.2 114.339 111.2 114.354 111.2C114.368 111.2 114.382 111.2 114.396 111.2C114.411 111.2 114.425 111.2 114.439 111.2C114.454 111.2 114.468 111.2 114.482 111.2C114.496 111.2 114.511 111.2 114.525 111.2C114.539 111.2 114.554 111.2 114.568 111.2C114.582 111.2 114.596 111.2 114.611 111.2C114.625 111.2 114.639 111.2 114.653 111.2C114.668 111.2 114.682 111.2 114.696 111.2C114.71 111.2 114.725 111.2 114.739 111.2C114.753 111.2 114.767 111.2 114.781 111.2C114.796 111.2 114.81 111.2 114.824 111.2C114.838 111.2 114.853 111.2 114.867 111.2C114.881 111.2 114.895 111.2 114.909 111.2C114.924 111.2 114.938 111.2 114.952 111.2C114.966 111.2 114.98 111.2 114.995 111.2C115.009 111.2 115.023 111.2 115.037 111.2C115.051 111.2 115.066 111.2 115.08 111.2C115.094 111.2 115.108 111.2 115.122 111.2C115.137 111.2 115.151 111.2 115.165 111.2C115.179 111.2 115.193 111.2 115.207 111.2C115.221 111.2 115.236 111.2 115.25 111.2C115.264 111.2 115.278 111.2 115.292 111.2C115.306 111.2 115.321 111.2 115.335 111.2C115.349 111.2 115.363 111.2 115.377 111.2C115.391 111.2 115.405 111.2 115.419 111.2C115.434 111.2 115.448 111.2 115.462 111.2C115.476 111.2 115.49 111.2 115.504 111.2C115.518 111.2 115.532 111.2 115.546 111.2C115.561 111.2 115.575 111.2 115.589 111.2C115.603 111.2 115.617 111.2 115.631 111.2C115.645 111.2 115.659 111.2 115.673 111.2C115.687 111.2 115.701 111.2 115.715 111.2C115.73 111.2 115.744 111.2 115.758 111.2C115.772 111.2 115.786 111.2 115.8 111.2C115.814 111.2 115.828 111.2 115.842 111.2C115.856 111.2 115.87 111.2 115.884 111.2C115.898 111.2 115.912 111.2 115.926 111.2C115.94 111.2 115.954 111.2 115.968 111.2C115.982 111.2 115.996 111.2 116.01 111.2C116.024 111.2 116.038 111.2 116.052 111.2C116.066 111.2 116.08 111.2 116.094 111.2C116.108 111.2 116.122 111.2 116.136 111.2C116.15 111.2 116.164 111.2 116.178 111.2C116.192 111.2 116.206 111.2 116.22 111.2C116.234 111.2 116.248 111.2 116.262 111.2C116.276 111.2 116.29 111.2 116.304 111.2C116.318 111.2 116.332 111.2 116.346 111.2C116.36 111.2 116.374 111.2 116.388 111.2C116.402 111.2 116.416 111.2 116.43 111.2C116.443 111.2 116.457 111.2 116.471 111.2C116.485 111.2 116.499 111.2 116.513 111.2C116.527 111.2 116.541 111.2 116.555 111.2C116.569 111.2 116.583 111.2 116.597 111.2C116.61 111.2 116.624 111.2 116.638 111.2C116.652 111.2 116.666 111.2 116.68 111.2C116.694 111.2 116.708 111.2 116.721 111.2C116.735 111.2 116.749 111.2 116.763 111.2C116.777 111.2 116.791 111.2 116.805 111.2C116.818 111.2 116.832 111.2 116.846 111.2C116.86 111.2 116.874 111.2 116.888 111.2C116.902 111.2 116.915 111.2 116.929 111.2C116.943 111.2 116.957 111.2 116.971 111.2C116.984 111.2 116.998 111.2 117.012 111.2C117.026 111.2 117.04 111.2 117.053 111.2C117.067 111.2 117.081 111.2 117.095 111.2C117.109 111.2 117.122 111.2 117.136 111.2C117.15 111.2 117.164 111.2 117.178 111.2C117.191 111.2 117.205 111.2 117.219 111.2C117.233 111.2 117.246 111.2 117.26 111.2C117.274 111.2 117.288 111.2 117.301 111.2C117.315 111.2 117.329 111.2 117.343 111.2C117.356 111.2 117.37 111.2 117.384 111.2C117.397 111.2 117.411 111.2 117.425 111.2C117.439 111.2 117.452 111.2 117.466 111.2C117.48 111.2 117.493 111.2 117.507 111.2C117.521 111.2 117.534 111.2 117.548 111.2C117.562 111.2 117.576 111.2 117.589 111.2C117.603 111.2 117.617 111.2 117.63 111.2C117.644 111.2 117.658 111.2 117.671 111.2C117.685 111.2 117.698 111.2 117.712 111.2C117.726 111.2 117.739 111.2 117.753 111.2C117.767 111.2 117.78 111.2 117.794 111.2C117.808 111.2 117.821 111.2 117.835 111.2V108.8ZM72.6098 60.8H59.3894V63.2H72.6098V60.8ZM49.5929 123.2H82.406V120.8H49.5929V123.2Z" fill="black"/>
</svg>
