<svg width="128" height="120" viewBox="0 0 128 120" fill="none" xmlns="http://www.w3.org/2000/svg">
<path d="M42.8 93.12L42.8 93.1225C42.8018 93.9898 43.0205 94.8429 43.4363 95.6041C43.852 96.3653 44.4515 97.0104 45.1802 97.4807C45.9089 97.9511 46.7438 98.2316 47.6086 98.2969C48.4728 98.3621 49.3396 98.2104 50.1302 97.8553C50.1308 97.8551 50.1314 97.8548 50.132 97.8545L89.2041 80.418C89.2052 80.4175 89.2063 80.4171 89.2073 80.4166C90.1287 80.0096 90.9121 79.3438 91.4622 78.4999C92.0129 77.6552 92.3062 76.6685 92.3062 75.66C92.3062 74.6515 92.0129 73.6648 91.4622 72.8201C90.912 71.9762 90.1287 71.3104 89.2073 70.9034C89.2063 70.9029 89.2052 70.9025 89.2041 70.902L50.132 53.5055C50.1313 53.5052 50.1307 53.5049 50.13 53.5046C49.3395 53.1496 48.4728 52.9979 47.6086 53.0631C46.7438 53.1284 45.909 53.4089 45.1802 53.8792C44.4515 54.3496 43.852 54.9947 43.4363 55.7559C43.0205 56.5171 42.8018 57.3702 42.8 58.2375V58.24L42.8 93.12ZM7.52 33.2H120.48C122.156 33.2 123.764 33.8659 124.949 35.0511C126.134 36.2363 126.8 37.8438 126.8 39.52V112.48C126.8 114.156 126.134 115.764 124.949 116.949C123.764 118.134 122.156 118.8 120.48 118.8H7.52C5.84383 118.8 4.23631 118.134 3.05109 116.949C1.86585 115.764 1.2 114.156 1.2 112.48V39.52C1.2 37.8438 1.86585 36.2363 3.05109 35.0511C4.23631 33.8659 5.84383 33.2 7.52 33.2ZM110.54 2.0201C111.065 2.5452 111.36 3.25739 111.36 4V6.8H17.76V4C17.76 3.25739 18.055 2.5452 18.5801 2.0201C19.1052 1.495 19.8174 1.2 20.56 1.2H108.56C109.303 1.2 110.015 1.495 110.54 2.0201ZM118.46 18.0201C118.985 18.5452 119.28 19.2574 119.28 20V22.8H9.68V20C9.68 19.2574 9.975 18.5452 10.5001 18.0201C11.0252 17.495 11.7374 17.2 12.48 17.2H116.48C117.223 17.2 117.935 17.495 118.46 18.0201Z" fill="#EFA35D" stroke="black" stroke-width="2.4"/>
</svg>
