<svg width="214" height="124" viewBox="0 0 214 124" fill="none" xmlns="http://www.w3.org/2000/svg">
<path d="M71.9501 88.087C71.9501 106.817 56.195 122 36.7602 122C17.3254 122 1.57031 106.817 1.57031 88.087C1.57031 69.3573 17.3254 54.1739 36.7602 54.1739C56.195 54.1739 71.9501 69.3573 71.9501 88.087Z" fill="#EFA35D"/>
<path d="M212.43 88.076C212.43 106.806 196.675 121.989 177.24 121.989C157.805 121.989 142.05 106.806 142.05 88.076C142.05 69.3464 157.805 54.163 177.24 54.163C196.675 54.163 212.43 69.3464 212.43 88.076Z" fill="#EFA35D"/>
<path d="M141.148 2H150.403C157.916 2 162.327 10.4502 158.031 16.6142L147.003 32.4348M108.213 88.087H36.4802L75.2702 32.4348M108.213 88.087L147.003 32.4348M108.213 88.087L75.2702 32.4348M147.003 32.4348H75.2702M147.003 32.4348L177.24 88.087M63.0982 11.1304H89.7162M71.9501 88.087C71.9501 106.817 56.195 122 36.7602 122C17.3254 122 1.57031 106.817 1.57031 88.087C1.57031 69.3573 17.3254 54.1739 36.7602 54.1739C56.195 54.1739 71.9501 69.3573 71.9501 88.087ZM212.43 88.076C212.43 106.806 196.675 121.989 177.24 121.989C157.805 121.989 142.05 106.806 142.05 88.076C142.05 69.3464 157.805 54.163 177.24 54.163C196.675 54.163 212.43 69.3464 212.43 88.076Z" stroke="black" stroke-width="2.50978" stroke-linecap="round" stroke-linejoin="round"/>
</svg>
